<?xml version="1.0" encoding="utf-8" standalone="no"?>
<!DOCTYPE svg PUBLIC "-//W3C//DTD SVG 1.1//EN"
  "http://www.w3.org/Graphics/SVG/1.1/DTD/svg11.dtd">
<!-- Created with matplotlib (http://matplotlib.org/) -->
<svg height="347.363875pt" version="1.1" viewBox="0 0 416.72125 347.363875" width="416.72125pt" xmlns="http://www.w3.org/2000/svg" xmlns:xlink="http://www.w3.org/1999/xlink">
 <defs>
  <style type="text/css">
*{stroke-linecap:butt;stroke-linejoin:round;}
  </style>
 </defs>
 <g id="figure_1">
  <g id="patch_1">
   <path d="M 0 347.363875 
L 416.72125 347.363875 
L 416.72125 0 
L 0 0 
z
" style="fill:#ffffff;"/>
  </g>
  <g id="axes_1">
   <g id="patch_2">
    <path d="M 48.90125 307.872 
L 406.02125 307.872 
L 406.02125 41.76 
L 48.90125 41.76 
z
" style="fill:#e5e5e5;"/>
   </g>
   <g id="matplotlib.axis_1">
    <g id="xtick_1">
     <g id="line2d_1">
      <path clip-path="url(#p60407cb169)" d="M 88.323588 307.872 
L 88.323588 41.76 
" style="fill:none;stroke:#ffffff;stroke-linecap:square;stroke-width:0.8;"/>
     </g>
     <g id="line2d_2">
      <defs>
       <path d="M 0 0 
L 0 3.5 
" id="mc2163337a8" style="stroke:#555555;stroke-width:0.8;"/>
      </defs>
      <g>
       <use style="fill:#555555;stroke:#555555;stroke-width:0.8;" x="88.323588" xlink:href="#mc2163337a8" y="307.872"/>
      </g>
     </g>
     <g id="text_1">
      <!-- 10 -->
      <defs>
       <path d="M 12.40625 8.296875 
L 28.515625 8.296875 
L 28.515625 63.921875 
L 10.984375 60.40625 
L 10.984375 69.390625 
L 28.421875 72.90625 
L 38.28125 72.90625 
L 38.28125 8.296875 
L 54.390625 8.296875 
L 54.390625 0 
L 12.40625 0 
z
" id="DejaVuSans-31"/>
       <path d="M 31.78125 66.40625 
Q 24.171875 66.40625 20.328125 58.90625 
Q 16.5 51.421875 16.5 36.375 
Q 16.5 21.390625 20.328125 13.890625 
Q 24.171875 6.390625 31.78125 6.390625 
Q 39.453125 6.390625 43.28125 13.890625 
Q 47.125 21.390625 47.125 36.375 
Q 47.125 51.421875 43.28125 58.90625 
Q 39.453125 66.40625 31.78125 66.40625 
z
M 31.78125 74.21875 
Q 44.046875 74.21875 50.515625 64.515625 
Q 56.984375 54.828125 56.984375 36.375 
Q 56.984375 17.96875 50.515625 8.265625 
Q 44.046875 -1.421875 31.78125 -1.421875 
Q 19.53125 -1.421875 13.0625 8.265625 
Q 6.59375 17.96875 6.59375 36.375 
Q 6.59375 54.828125 13.0625 64.515625 
Q 19.53125 74.21875 31.78125 74.21875 
z
" id="DejaVuSans-30"/>
      </defs>
      <g style="fill:#555555;" transform="translate(81.961088 322.470438)scale(0.1 -0.1)">
       <use xlink:href="#DejaVuSans-31"/>
       <use x="63.623047" xlink:href="#DejaVuSans-30"/>
      </g>
     </g>
    </g>
    <g id="xtick_2">
     <g id="line2d_3">
      <path clip-path="url(#p60407cb169)" d="M 134.702808 307.872 
L 134.702808 41.76 
" style="fill:none;stroke:#ffffff;stroke-linecap:square;stroke-width:0.8;"/>
     </g>
     <g id="line2d_4">
      <g>
       <use style="fill:#555555;stroke:#555555;stroke-width:0.8;" x="134.702808" xlink:href="#mc2163337a8" y="307.872"/>
      </g>
     </g>
     <g id="text_2">
      <!-- 20 -->
      <defs>
       <path d="M 19.1875 8.296875 
L 53.609375 8.296875 
L 53.609375 0 
L 7.328125 0 
L 7.328125 8.296875 
Q 12.9375 14.109375 22.625 23.890625 
Q 32.328125 33.6875 34.8125 36.53125 
Q 39.546875 41.84375 41.421875 45.53125 
Q 43.3125 49.21875 43.3125 52.78125 
Q 43.3125 58.59375 39.234375 62.25 
Q 35.15625 65.921875 28.609375 65.921875 
Q 23.96875 65.921875 18.8125 64.3125 
Q 13.671875 62.703125 7.8125 59.421875 
L 7.8125 69.390625 
Q 13.765625 71.78125 18.9375 73 
Q 24.125 74.21875 28.421875 74.21875 
Q 39.75 74.21875 46.484375 68.546875 
Q 53.21875 62.890625 53.21875 53.421875 
Q 53.21875 48.921875 51.53125 44.890625 
Q 49.859375 40.875 45.40625 35.40625 
Q 44.1875 33.984375 37.640625 27.21875 
Q 31.109375 20.453125 19.1875 8.296875 
z
" id="DejaVuSans-32"/>
      </defs>
      <g style="fill:#555555;" transform="translate(128.340308 322.470438)scale(0.1 -0.1)">
       <use xlink:href="#DejaVuSans-32"/>
       <use x="63.623047" xlink:href="#DejaVuSans-30"/>
      </g>
     </g>
    </g>
    <g id="xtick_3">
     <g id="line2d_5">
      <path clip-path="url(#p60407cb169)" d="M 181.082029 307.872 
L 181.082029 41.76 
" style="fill:none;stroke:#ffffff;stroke-linecap:square;stroke-width:0.8;"/>
     </g>
     <g id="line2d_6">
      <g>
       <use style="fill:#555555;stroke:#555555;stroke-width:0.8;" x="181.082029" xlink:href="#mc2163337a8" y="307.872"/>
      </g>
     </g>
     <g id="text_3">
      <!-- 30 -->
      <defs>
       <path d="M 40.578125 39.3125 
Q 47.65625 37.796875 51.625 33 
Q 55.609375 28.21875 55.609375 21.1875 
Q 55.609375 10.40625 48.1875 4.484375 
Q 40.765625 -1.421875 27.09375 -1.421875 
Q 22.515625 -1.421875 17.65625 -0.515625 
Q 12.796875 0.390625 7.625 2.203125 
L 7.625 11.71875 
Q 11.71875 9.328125 16.59375 8.109375 
Q 21.484375 6.890625 26.8125 6.890625 
Q 36.078125 6.890625 40.9375 10.546875 
Q 45.796875 14.203125 45.796875 21.1875 
Q 45.796875 27.640625 41.28125 31.265625 
Q 36.765625 34.90625 28.71875 34.90625 
L 20.21875 34.90625 
L 20.21875 43.015625 
L 29.109375 43.015625 
Q 36.375 43.015625 40.234375 45.921875 
Q 44.09375 48.828125 44.09375 54.296875 
Q 44.09375 59.90625 40.109375 62.90625 
Q 36.140625 65.921875 28.71875 65.921875 
Q 24.65625 65.921875 20.015625 65.03125 
Q 15.375 64.15625 9.8125 62.3125 
L 9.8125 71.09375 
Q 15.4375 72.65625 20.34375 73.4375 
Q 25.25 74.21875 29.59375 74.21875 
Q 40.828125 74.21875 47.359375 69.109375 
Q 53.90625 64.015625 53.90625 55.328125 
Q 53.90625 49.265625 50.4375 45.09375 
Q 46.96875 40.921875 40.578125 39.3125 
z
" id="DejaVuSans-33"/>
      </defs>
      <g style="fill:#555555;" transform="translate(174.719529 322.470438)scale(0.1 -0.1)">
       <use xlink:href="#DejaVuSans-33"/>
       <use x="63.623047" xlink:href="#DejaVuSans-30"/>
      </g>
     </g>
    </g>
    <g id="xtick_4">
     <g id="line2d_7">
      <path clip-path="url(#p60407cb169)" d="M 227.46125 307.872 
L 227.46125 41.76 
" style="fill:none;stroke:#ffffff;stroke-linecap:square;stroke-width:0.8;"/>
     </g>
     <g id="line2d_8">
      <g>
       <use style="fill:#555555;stroke:#555555;stroke-width:0.8;" x="227.46125" xlink:href="#mc2163337a8" y="307.872"/>
      </g>
     </g>
     <g id="text_4">
      <!-- 40 -->
      <defs>
       <path d="M 37.796875 64.3125 
L 12.890625 25.390625 
L 37.796875 25.390625 
z
M 35.203125 72.90625 
L 47.609375 72.90625 
L 47.609375 25.390625 
L 58.015625 25.390625 
L 58.015625 17.1875 
L 47.609375 17.1875 
L 47.609375 0 
L 37.796875 0 
L 37.796875 17.1875 
L 4.890625 17.1875 
L 4.890625 26.703125 
z
" id="DejaVuSans-34"/>
      </defs>
      <g style="fill:#555555;" transform="translate(221.09875 322.470438)scale(0.1 -0.1)">
       <use xlink:href="#DejaVuSans-34"/>
       <use x="63.623047" xlink:href="#DejaVuSans-30"/>
      </g>
     </g>
    </g>
    <g id="xtick_5">
     <g id="line2d_9">
      <path clip-path="url(#p60407cb169)" d="M 273.840471 307.872 
L 273.840471 41.76 
" style="fill:none;stroke:#ffffff;stroke-linecap:square;stroke-width:0.8;"/>
     </g>
     <g id="line2d_10">
      <g>
       <use style="fill:#555555;stroke:#555555;stroke-width:0.8;" x="273.840471" xlink:href="#mc2163337a8" y="307.872"/>
      </g>
     </g>
     <g id="text_5">
      <!-- 50 -->
      <defs>
       <path d="M 10.796875 72.90625 
L 49.515625 72.90625 
L 49.515625 64.59375 
L 19.828125 64.59375 
L 19.828125 46.734375 
Q 21.96875 47.46875 24.109375 47.828125 
Q 26.265625 48.1875 28.421875 48.1875 
Q 40.625 48.1875 47.75 41.5 
Q 54.890625 34.8125 54.890625 23.390625 
Q 54.890625 11.625 47.5625 5.09375 
Q 40.234375 -1.421875 26.90625 -1.421875 
Q 22.3125 -1.421875 17.546875 -0.640625 
Q 12.796875 0.140625 7.71875 1.703125 
L 7.71875 11.625 
Q 12.109375 9.234375 16.796875 8.0625 
Q 21.484375 6.890625 26.703125 6.890625 
Q 35.15625 6.890625 40.078125 11.328125 
Q 45.015625 15.765625 45.015625 23.390625 
Q 45.015625 31 40.078125 35.4375 
Q 35.15625 39.890625 26.703125 39.890625 
Q 22.75 39.890625 18.8125 39.015625 
Q 14.890625 38.140625 10.796875 36.28125 
z
" id="DejaVuSans-35"/>
      </defs>
      <g style="fill:#555555;" transform="translate(267.477971 322.470438)scale(0.1 -0.1)">
       <use xlink:href="#DejaVuSans-35"/>
       <use x="63.623047" xlink:href="#DejaVuSans-30"/>
      </g>
     </g>
    </g>
    <g id="xtick_6">
     <g id="line2d_11">
      <path clip-path="url(#p60407cb169)" d="M 320.219692 307.872 
L 320.219692 41.76 
" style="fill:none;stroke:#ffffff;stroke-linecap:square;stroke-width:0.8;"/>
     </g>
     <g id="line2d_12">
      <g>
       <use style="fill:#555555;stroke:#555555;stroke-width:0.8;" x="320.219692" xlink:href="#mc2163337a8" y="307.872"/>
      </g>
     </g>
     <g id="text_6">
      <!-- 60 -->
      <defs>
       <path d="M 33.015625 40.375 
Q 26.375 40.375 22.484375 35.828125 
Q 18.609375 31.296875 18.609375 23.390625 
Q 18.609375 15.53125 22.484375 10.953125 
Q 26.375 6.390625 33.015625 6.390625 
Q 39.65625 6.390625 43.53125 10.953125 
Q 47.40625 15.53125 47.40625 23.390625 
Q 47.40625 31.296875 43.53125 35.828125 
Q 39.65625 40.375 33.015625 40.375 
z
M 52.59375 71.296875 
L 52.59375 62.3125 
Q 48.875 64.0625 45.09375 64.984375 
Q 41.3125 65.921875 37.59375 65.921875 
Q 27.828125 65.921875 22.671875 59.328125 
Q 17.53125 52.734375 16.796875 39.40625 
Q 19.671875 43.65625 24.015625 45.921875 
Q 28.375 48.1875 33.59375 48.1875 
Q 44.578125 48.1875 50.953125 41.515625 
Q 57.328125 34.859375 57.328125 23.390625 
Q 57.328125 12.15625 50.6875 5.359375 
Q 44.046875 -1.421875 33.015625 -1.421875 
Q 20.359375 -1.421875 13.671875 8.265625 
Q 6.984375 17.96875 6.984375 36.375 
Q 6.984375 53.65625 15.1875 63.9375 
Q 23.390625 74.21875 37.203125 74.21875 
Q 40.921875 74.21875 44.703125 73.484375 
Q 48.484375 72.75 52.59375 71.296875 
z
" id="DejaVuSans-36"/>
      </defs>
      <g style="fill:#555555;" transform="translate(313.857192 322.470438)scale(0.1 -0.1)">
       <use xlink:href="#DejaVuSans-36"/>
       <use x="63.623047" xlink:href="#DejaVuSans-30"/>
      </g>
     </g>
    </g>
    <g id="xtick_7">
     <g id="line2d_13">
      <path clip-path="url(#p60407cb169)" d="M 366.598912 307.872 
L 366.598912 41.76 
" style="fill:none;stroke:#ffffff;stroke-linecap:square;stroke-width:0.8;"/>
     </g>
     <g id="line2d_14">
      <g>
       <use style="fill:#555555;stroke:#555555;stroke-width:0.8;" x="366.598912" xlink:href="#mc2163337a8" y="307.872"/>
      </g>
     </g>
     <g id="text_7">
      <!-- 70 -->
      <defs>
       <path d="M 8.203125 72.90625 
L 55.078125 72.90625 
L 55.078125 68.703125 
L 28.609375 0 
L 18.3125 0 
L 43.21875 64.59375 
L 8.203125 64.59375 
z
" id="DejaVuSans-37"/>
      </defs>
      <g style="fill:#555555;" transform="translate(360.236412 322.470438)scale(0.1 -0.1)">
       <use xlink:href="#DejaVuSans-37"/>
       <use x="63.623047" xlink:href="#DejaVuSans-30"/>
      </g>
     </g>
    </g>
    <g id="text_8">
     <!-- Tokens Quant. -->
     <defs>
      <path d="M -0.296875 72.90625 
L 61.375 72.90625 
L 61.375 64.59375 
L 35.5 64.59375 
L 35.5 0 
L 25.59375 0 
L 25.59375 64.59375 
L -0.296875 64.59375 
z
" id="DejaVuSans-54"/>
      <path d="M 30.609375 48.390625 
Q 23.390625 48.390625 19.1875 42.75 
Q 14.984375 37.109375 14.984375 27.296875 
Q 14.984375 17.484375 19.15625 11.84375 
Q 23.34375 6.203125 30.609375 6.203125 
Q 37.796875 6.203125 41.984375 11.859375 
Q 46.1875 17.53125 46.1875 27.296875 
Q 46.1875 37.015625 41.984375 42.703125 
Q 37.796875 48.390625 30.609375 48.390625 
z
M 30.609375 56 
Q 42.328125 56 49.015625 48.375 
Q 55.71875 40.765625 55.71875 27.296875 
Q 55.71875 13.875 49.015625 6.21875 
Q 42.328125 -1.421875 30.609375 -1.421875 
Q 18.84375 -1.421875 12.171875 6.21875 
Q 5.515625 13.875 5.515625 27.296875 
Q 5.515625 40.765625 12.171875 48.375 
Q 18.84375 56 30.609375 56 
z
" id="DejaVuSans-6f"/>
      <path d="M 9.078125 75.984375 
L 18.109375 75.984375 
L 18.109375 31.109375 
L 44.921875 54.6875 
L 56.390625 54.6875 
L 27.390625 29.109375 
L 57.625 0 
L 45.90625 0 
L 18.109375 26.703125 
L 18.109375 0 
L 9.078125 0 
z
" id="DejaVuSans-6b"/>
      <path d="M 56.203125 29.59375 
L 56.203125 25.203125 
L 14.890625 25.203125 
Q 15.484375 15.921875 20.484375 11.0625 
Q 25.484375 6.203125 34.421875 6.203125 
Q 39.59375 6.203125 44.453125 7.46875 
Q 49.3125 8.734375 54.109375 11.28125 
L 54.109375 2.78125 
Q 49.265625 0.734375 44.1875 -0.34375 
Q 39.109375 -1.421875 33.890625 -1.421875 
Q 20.796875 -1.421875 13.15625 6.1875 
Q 5.515625 13.8125 5.515625 26.8125 
Q 5.515625 40.234375 12.765625 48.109375 
Q 20.015625 56 32.328125 56 
Q 43.359375 56 49.78125 48.890625 
Q 56.203125 41.796875 56.203125 29.59375 
z
M 47.21875 32.234375 
Q 47.125 39.59375 43.09375 43.984375 
Q 39.0625 48.390625 32.421875 48.390625 
Q 24.90625 48.390625 20.390625 44.140625 
Q 15.875 39.890625 15.1875 32.171875 
z
" id="DejaVuSans-65"/>
      <path d="M 54.890625 33.015625 
L 54.890625 0 
L 45.90625 0 
L 45.90625 32.71875 
Q 45.90625 40.484375 42.875 44.328125 
Q 39.84375 48.1875 33.796875 48.1875 
Q 26.515625 48.1875 22.3125 43.546875 
Q 18.109375 38.921875 18.109375 30.90625 
L 18.109375 0 
L 9.078125 0 
L 9.078125 54.6875 
L 18.109375 54.6875 
L 18.109375 46.1875 
Q 21.34375 51.125 25.703125 53.5625 
Q 30.078125 56 35.796875 56 
Q 45.21875 56 50.046875 50.171875 
Q 54.890625 44.34375 54.890625 33.015625 
z
" id="DejaVuSans-6e"/>
      <path d="M 44.28125 53.078125 
L 44.28125 44.578125 
Q 40.484375 46.53125 36.375 47.5 
Q 32.28125 48.484375 27.875 48.484375 
Q 21.1875 48.484375 17.84375 46.4375 
Q 14.5 44.390625 14.5 40.28125 
Q 14.5 37.15625 16.890625 35.375 
Q 19.28125 33.59375 26.515625 31.984375 
L 29.59375 31.296875 
Q 39.15625 29.25 43.1875 25.515625 
Q 47.21875 21.78125 47.21875 15.09375 
Q 47.21875 7.46875 41.1875 3.015625 
Q 35.15625 -1.421875 24.609375 -1.421875 
Q 20.21875 -1.421875 15.453125 -0.5625 
Q 10.6875 0.296875 5.421875 2 
L 5.421875 11.28125 
Q 10.40625 8.6875 15.234375 7.390625 
Q 20.0625 6.109375 24.8125 6.109375 
Q 31.15625 6.109375 34.5625 8.28125 
Q 37.984375 10.453125 37.984375 14.40625 
Q 37.984375 18.0625 35.515625 20.015625 
Q 33.0625 21.96875 24.703125 23.78125 
L 21.578125 24.515625 
Q 13.234375 26.265625 9.515625 29.90625 
Q 5.8125 33.546875 5.8125 39.890625 
Q 5.8125 47.609375 11.28125 51.796875 
Q 16.75 56 26.8125 56 
Q 31.78125 56 36.171875 55.265625 
Q 40.578125 54.546875 44.28125 53.078125 
z
" id="DejaVuSans-73"/>
      <path id="DejaVuSans-20"/>
      <path d="M 39.40625 66.21875 
Q 28.65625 66.21875 22.328125 58.203125 
Q 16.015625 50.203125 16.015625 36.375 
Q 16.015625 22.609375 22.328125 14.59375 
Q 28.65625 6.59375 39.40625 6.59375 
Q 50.140625 6.59375 56.421875 14.59375 
Q 62.703125 22.609375 62.703125 36.375 
Q 62.703125 50.203125 56.421875 58.203125 
Q 50.140625 66.21875 39.40625 66.21875 
z
M 53.21875 1.3125 
L 66.21875 -12.890625 
L 54.296875 -12.890625 
L 43.5 -1.21875 
Q 41.890625 -1.3125 41.03125 -1.359375 
Q 40.1875 -1.421875 39.40625 -1.421875 
Q 24.03125 -1.421875 14.8125 8.859375 
Q 5.609375 19.140625 5.609375 36.375 
Q 5.609375 53.65625 14.8125 63.9375 
Q 24.03125 74.21875 39.40625 74.21875 
Q 54.734375 74.21875 63.90625 63.9375 
Q 73.09375 53.65625 73.09375 36.375 
Q 73.09375 23.6875 67.984375 14.640625 
Q 62.890625 5.609375 53.21875 1.3125 
z
" id="DejaVuSans-51"/>
      <path d="M 8.5 21.578125 
L 8.5 54.6875 
L 17.484375 54.6875 
L 17.484375 21.921875 
Q 17.484375 14.15625 20.5 10.265625 
Q 23.53125 6.390625 29.59375 6.390625 
Q 36.859375 6.390625 41.078125 11.03125 
Q 45.3125 15.671875 45.3125 23.6875 
L 45.3125 54.6875 
L 54.296875 54.6875 
L 54.296875 0 
L 45.3125 0 
L 45.3125 8.40625 
Q 42.046875 3.421875 37.71875 1 
Q 33.40625 -1.421875 27.6875 -1.421875 
Q 18.265625 -1.421875 13.375 4.4375 
Q 8.5 10.296875 8.5 21.578125 
z
M 31.109375 56 
z
" id="DejaVuSans-75"/>
      <path d="M 34.28125 27.484375 
Q 23.390625 27.484375 19.1875 25 
Q 14.984375 22.515625 14.984375 16.5 
Q 14.984375 11.71875 18.140625 8.90625 
Q 21.296875 6.109375 26.703125 6.109375 
Q 34.1875 6.109375 38.703125 11.40625 
Q 43.21875 16.703125 43.21875 25.484375 
L 43.21875 27.484375 
z
M 52.203125 31.203125 
L 52.203125 0 
L 43.21875 0 
L 43.21875 8.296875 
Q 40.140625 3.328125 35.546875 0.953125 
Q 30.953125 -1.421875 24.3125 -1.421875 
Q 15.921875 -1.421875 10.953125 3.296875 
Q 6 8.015625 6 15.921875 
Q 6 25.140625 12.171875 29.828125 
Q 18.359375 34.515625 30.609375 34.515625 
L 43.21875 34.515625 
L 43.21875 35.40625 
Q 43.21875 41.609375 39.140625 45 
Q 35.0625 48.390625 27.6875 48.390625 
Q 23 48.390625 18.546875 47.265625 
Q 14.109375 46.140625 10.015625 43.890625 
L 10.015625 52.203125 
Q 14.9375 54.109375 19.578125 55.046875 
Q 24.21875 56 28.609375 56 
Q 40.484375 56 46.34375 49.84375 
Q 52.203125 43.703125 52.203125 31.203125 
z
" id="DejaVuSans-61"/>
      <path d="M 18.3125 70.21875 
L 18.3125 54.6875 
L 36.8125 54.6875 
L 36.8125 47.703125 
L 18.3125 47.703125 
L 18.3125 18.015625 
Q 18.3125 11.328125 20.140625 9.421875 
Q 21.96875 7.515625 27.59375 7.515625 
L 36.8125 7.515625 
L 36.8125 0 
L 27.59375 0 
Q 17.1875 0 13.234375 3.875 
Q 9.28125 7.765625 9.28125 18.015625 
L 9.28125 47.703125 
L 2.6875 47.703125 
L 2.6875 54.6875 
L 9.28125 54.6875 
L 9.28125 70.21875 
z
" id="DejaVuSans-74"/>
      <path d="M 10.6875 12.40625 
L 21 12.40625 
L 21 0 
L 10.6875 0 
z
" id="DejaVuSans-2e"/>
     </defs>
     <g style="fill:#555555;" transform="translate(183.87875 337.66825)scale(0.12 -0.12)">
      <use xlink:href="#DejaVuSans-54"/>
      <use x="60.818359" xlink:href="#DejaVuSans-6f"/>
      <use x="122" xlink:href="#DejaVuSans-6b"/>
      <use x="179.863281" xlink:href="#DejaVuSans-65"/>
      <use x="241.386719" xlink:href="#DejaVuSans-6e"/>
      <use x="304.765625" xlink:href="#DejaVuSans-73"/>
      <use x="356.865234" xlink:href="#DejaVuSans-20"/>
      <use x="388.652344" xlink:href="#DejaVuSans-51"/>
      <use x="467.363281" xlink:href="#DejaVuSans-75"/>
      <use x="530.742188" xlink:href="#DejaVuSans-61"/>
      <use x="592.021484" xlink:href="#DejaVuSans-6e"/>
      <use x="655.400391" xlink:href="#DejaVuSans-74"/>
      <use x="694.609375" xlink:href="#DejaVuSans-2e"/>
     </g>
    </g>
   </g>
   <g id="matplotlib.axis_2">
    <g id="ytick_1">
     <g id="line2d_15">
      <path clip-path="url(#p60407cb169)" d="M 48.90125 307.872 
L 406.02125 307.872 
" style="fill:none;stroke:#ffffff;stroke-linecap:square;stroke-width:0.8;"/>
     </g>
     <g id="line2d_16">
      <defs>
       <path d="M 0 0 
L -3.5 0 
" id="m76214a7990" style="stroke:#555555;stroke-width:0.8;"/>
      </defs>
      <g>
       <use style="fill:#555555;stroke:#555555;stroke-width:0.8;" x="48.90125" xlink:href="#m76214a7990" y="307.872"/>
      </g>
     </g>
     <g id="text_9">
      <!-- 0 -->
      <g style="fill:#555555;" transform="translate(35.53875 311.671219)scale(0.1 -0.1)">
       <use xlink:href="#DejaVuSans-30"/>
      </g>
     </g>
    </g>
    <g id="ytick_2">
     <g id="line2d_17">
      <path clip-path="url(#p60407cb169)" d="M 48.90125 276.736865 
L 406.02125 276.736865 
" style="fill:none;stroke:#ffffff;stroke-linecap:square;stroke-width:0.8;"/>
     </g>
     <g id="line2d_18">
      <g>
       <use style="fill:#555555;stroke:#555555;stroke-width:0.8;" x="48.90125" xlink:href="#m76214a7990" y="276.736865"/>
      </g>
     </g>
     <g id="text_10">
      <!-- 100 -->
      <g style="fill:#555555;" transform="translate(22.81375 280.536084)scale(0.1 -0.1)">
       <use xlink:href="#DejaVuSans-31"/>
       <use x="63.623047" xlink:href="#DejaVuSans-30"/>
       <use x="127.246094" xlink:href="#DejaVuSans-30"/>
      </g>
     </g>
    </g>
    <g id="ytick_3">
     <g id="line2d_19">
      <path clip-path="url(#p60407cb169)" d="M 48.90125 245.60173 
L 406.02125 245.60173 
" style="fill:none;stroke:#ffffff;stroke-linecap:square;stroke-width:0.8;"/>
     </g>
     <g id="line2d_20">
      <g>
       <use style="fill:#555555;stroke:#555555;stroke-width:0.8;" x="48.90125" xlink:href="#m76214a7990" y="245.60173"/>
      </g>
     </g>
     <g id="text_11">
      <!-- 200 -->
      <g style="fill:#555555;" transform="translate(22.81375 249.400948)scale(0.1 -0.1)">
       <use xlink:href="#DejaVuSans-32"/>
       <use x="63.623047" xlink:href="#DejaVuSans-30"/>
       <use x="127.246094" xlink:href="#DejaVuSans-30"/>
      </g>
     </g>
    </g>
    <g id="ytick_4">
     <g id="line2d_21">
      <path clip-path="url(#p60407cb169)" d="M 48.90125 214.466595 
L 406.02125 214.466595 
" style="fill:none;stroke:#ffffff;stroke-linecap:square;stroke-width:0.8;"/>
     </g>
     <g id="line2d_22">
      <g>
       <use style="fill:#555555;stroke:#555555;stroke-width:0.8;" x="48.90125" xlink:href="#m76214a7990" y="214.466595"/>
      </g>
     </g>
     <g id="text_12">
      <!-- 300 -->
      <g style="fill:#555555;" transform="translate(22.81375 218.265813)scale(0.1 -0.1)">
       <use xlink:href="#DejaVuSans-33"/>
       <use x="63.623047" xlink:href="#DejaVuSans-30"/>
       <use x="127.246094" xlink:href="#DejaVuSans-30"/>
      </g>
     </g>
    </g>
    <g id="ytick_5">
     <g id="line2d_23">
      <path clip-path="url(#p60407cb169)" d="M 48.90125 183.331459 
L 406.02125 183.331459 
" style="fill:none;stroke:#ffffff;stroke-linecap:square;stroke-width:0.8;"/>
     </g>
     <g id="line2d_24">
      <g>
       <use style="fill:#555555;stroke:#555555;stroke-width:0.8;" x="48.90125" xlink:href="#m76214a7990" y="183.331459"/>
      </g>
     </g>
     <g id="text_13">
      <!-- 400 -->
      <g style="fill:#555555;" transform="translate(22.81375 187.130678)scale(0.1 -0.1)">
       <use xlink:href="#DejaVuSans-34"/>
       <use x="63.623047" xlink:href="#DejaVuSans-30"/>
       <use x="127.246094" xlink:href="#DejaVuSans-30"/>
      </g>
     </g>
    </g>
    <g id="ytick_6">
     <g id="line2d_25">
      <path clip-path="url(#p60407cb169)" d="M 48.90125 152.196324 
L 406.02125 152.196324 
" style="fill:none;stroke:#ffffff;stroke-linecap:square;stroke-width:0.8;"/>
     </g>
     <g id="line2d_26">
      <g>
       <use style="fill:#555555;stroke:#555555;stroke-width:0.8;" x="48.90125" xlink:href="#m76214a7990" y="152.196324"/>
      </g>
     </g>
     <g id="text_14">
      <!-- 500 -->
      <g style="fill:#555555;" transform="translate(22.81375 155.995543)scale(0.1 -0.1)">
       <use xlink:href="#DejaVuSans-35"/>
       <use x="63.623047" xlink:href="#DejaVuSans-30"/>
       <use x="127.246094" xlink:href="#DejaVuSans-30"/>
      </g>
     </g>
    </g>
    <g id="ytick_7">
     <g id="line2d_27">
      <path clip-path="url(#p60407cb169)" d="M 48.90125 121.061189 
L 406.02125 121.061189 
" style="fill:none;stroke:#ffffff;stroke-linecap:square;stroke-width:0.8;"/>
     </g>
     <g id="line2d_28">
      <g>
       <use style="fill:#555555;stroke:#555555;stroke-width:0.8;" x="48.90125" xlink:href="#m76214a7990" y="121.061189"/>
      </g>
     </g>
     <g id="text_15">
      <!-- 600 -->
      <g style="fill:#555555;" transform="translate(22.81375 124.860408)scale(0.1 -0.1)">
       <use xlink:href="#DejaVuSans-36"/>
       <use x="63.623047" xlink:href="#DejaVuSans-30"/>
       <use x="127.246094" xlink:href="#DejaVuSans-30"/>
      </g>
     </g>
    </g>
    <g id="ytick_8">
     <g id="line2d_29">
      <path clip-path="url(#p60407cb169)" d="M 48.90125 89.926054 
L 406.02125 89.926054 
" style="fill:none;stroke:#ffffff;stroke-linecap:square;stroke-width:0.8;"/>
     </g>
     <g id="line2d_30">
      <g>
       <use style="fill:#555555;stroke:#555555;stroke-width:0.8;" x="48.90125" xlink:href="#m76214a7990" y="89.926054"/>
      </g>
     </g>
     <g id="text_16">
      <!-- 700 -->
      <g style="fill:#555555;" transform="translate(22.81375 93.725273)scale(0.1 -0.1)">
       <use xlink:href="#DejaVuSans-37"/>
       <use x="63.623047" xlink:href="#DejaVuSans-30"/>
       <use x="127.246094" xlink:href="#DejaVuSans-30"/>
      </g>
     </g>
    </g>
    <g id="ytick_9">
     <g id="line2d_31">
      <path clip-path="url(#p60407cb169)" d="M 48.90125 58.790919 
L 406.02125 58.790919 
" style="fill:none;stroke:#ffffff;stroke-linecap:square;stroke-width:0.8;"/>
     </g>
     <g id="line2d_32">
      <g>
       <use style="fill:#555555;stroke:#555555;stroke-width:0.8;" x="48.90125" xlink:href="#m76214a7990" y="58.790919"/>
      </g>
     </g>
     <g id="text_17">
      <!-- 800 -->
      <defs>
       <path d="M 31.78125 34.625 
Q 24.75 34.625 20.71875 30.859375 
Q 16.703125 27.09375 16.703125 20.515625 
Q 16.703125 13.921875 20.71875 10.15625 
Q 24.75 6.390625 31.78125 6.390625 
Q 38.8125 6.390625 42.859375 10.171875 
Q 46.921875 13.96875 46.921875 20.515625 
Q 46.921875 27.09375 42.890625 30.859375 
Q 38.875 34.625 31.78125 34.625 
z
M 21.921875 38.8125 
Q 15.578125 40.375 12.03125 44.71875 
Q 8.5 49.078125 8.5 55.328125 
Q 8.5 64.0625 14.71875 69.140625 
Q 20.953125 74.21875 31.78125 74.21875 
Q 42.671875 74.21875 48.875 69.140625 
Q 55.078125 64.0625 55.078125 55.328125 
Q 55.078125 49.078125 51.53125 44.71875 
Q 48 40.375 41.703125 38.8125 
Q 48.828125 37.15625 52.796875 32.3125 
Q 56.78125 27.484375 56.78125 20.515625 
Q 56.78125 9.90625 50.3125 4.234375 
Q 43.84375 -1.421875 31.78125 -1.421875 
Q 19.734375 -1.421875 13.25 4.234375 
Q 6.78125 9.90625 6.78125 20.515625 
Q 6.78125 27.484375 10.78125 32.3125 
Q 14.796875 37.15625 21.921875 38.8125 
z
M 18.3125 54.390625 
Q 18.3125 48.734375 21.84375 45.5625 
Q 25.390625 42.390625 31.78125 42.390625 
Q 38.140625 42.390625 41.71875 45.5625 
Q 45.3125 48.734375 45.3125 54.390625 
Q 45.3125 60.0625 41.71875 63.234375 
Q 38.140625 66.40625 31.78125 66.40625 
Q 25.390625 66.40625 21.84375 63.234375 
Q 18.3125 60.0625 18.3125 54.390625 
z
" id="DejaVuSans-38"/>
      </defs>
      <g style="fill:#555555;" transform="translate(22.81375 62.590138)scale(0.1 -0.1)">
       <use xlink:href="#DejaVuSans-38"/>
       <use x="63.623047" xlink:href="#DejaVuSans-30"/>
       <use x="127.246094" xlink:href="#DejaVuSans-30"/>
      </g>
     </g>
    </g>
    <g id="text_18">
     <!-- Sentence Frequency -->
     <defs>
      <path d="M 53.515625 70.515625 
L 53.515625 60.890625 
Q 47.90625 63.578125 42.921875 64.890625 
Q 37.9375 66.21875 33.296875 66.21875 
Q 25.25 66.21875 20.875 63.09375 
Q 16.5 59.96875 16.5 54.203125 
Q 16.5 49.359375 19.40625 46.890625 
Q 22.3125 44.4375 30.421875 42.921875 
L 36.375 41.703125 
Q 47.40625 39.59375 52.65625 34.296875 
Q 57.90625 29 57.90625 20.125 
Q 57.90625 9.515625 50.796875 4.046875 
Q 43.703125 -1.421875 29.984375 -1.421875 
Q 24.8125 -1.421875 18.96875 -0.25 
Q 13.140625 0.921875 6.890625 3.21875 
L 6.890625 13.375 
Q 12.890625 10.015625 18.65625 8.296875 
Q 24.421875 6.59375 29.984375 6.59375 
Q 38.421875 6.59375 43.015625 9.90625 
Q 47.609375 13.234375 47.609375 19.390625 
Q 47.609375 24.75 44.3125 27.78125 
Q 41.015625 30.8125 33.5 32.328125 
L 27.484375 33.5 
Q 16.453125 35.6875 11.515625 40.375 
Q 6.59375 45.0625 6.59375 53.421875 
Q 6.59375 63.09375 13.40625 68.65625 
Q 20.21875 74.21875 32.171875 74.21875 
Q 37.3125 74.21875 42.625 73.28125 
Q 47.953125 72.359375 53.515625 70.515625 
z
" id="DejaVuSans-53"/>
      <path d="M 48.78125 52.59375 
L 48.78125 44.1875 
Q 44.96875 46.296875 41.140625 47.34375 
Q 37.3125 48.390625 33.40625 48.390625 
Q 24.65625 48.390625 19.8125 42.84375 
Q 14.984375 37.3125 14.984375 27.296875 
Q 14.984375 17.28125 19.8125 11.734375 
Q 24.65625 6.203125 33.40625 6.203125 
Q 37.3125 6.203125 41.140625 7.25 
Q 44.96875 8.296875 48.78125 10.40625 
L 48.78125 2.09375 
Q 45.015625 0.34375 40.984375 -0.53125 
Q 36.96875 -1.421875 32.421875 -1.421875 
Q 20.0625 -1.421875 12.78125 6.34375 
Q 5.515625 14.109375 5.515625 27.296875 
Q 5.515625 40.671875 12.859375 48.328125 
Q 20.21875 56 33.015625 56 
Q 37.15625 56 41.109375 55.140625 
Q 45.0625 54.296875 48.78125 52.59375 
z
" id="DejaVuSans-63"/>
      <path d="M 9.8125 72.90625 
L 51.703125 72.90625 
L 51.703125 64.59375 
L 19.671875 64.59375 
L 19.671875 43.109375 
L 48.578125 43.109375 
L 48.578125 34.8125 
L 19.671875 34.8125 
L 19.671875 0 
L 9.8125 0 
z
" id="DejaVuSans-46"/>
      <path d="M 41.109375 46.296875 
Q 39.59375 47.171875 37.8125 47.578125 
Q 36.03125 48 33.890625 48 
Q 26.265625 48 22.1875 43.046875 
Q 18.109375 38.09375 18.109375 28.8125 
L 18.109375 0 
L 9.078125 0 
L 9.078125 54.6875 
L 18.109375 54.6875 
L 18.109375 46.1875 
Q 20.953125 51.171875 25.484375 53.578125 
Q 30.03125 56 36.53125 56 
Q 37.453125 56 38.578125 55.875 
Q 39.703125 55.765625 41.0625 55.515625 
z
" id="DejaVuSans-72"/>
      <path d="M 14.796875 27.296875 
Q 14.796875 17.390625 18.875 11.75 
Q 22.953125 6.109375 30.078125 6.109375 
Q 37.203125 6.109375 41.296875 11.75 
Q 45.40625 17.390625 45.40625 27.296875 
Q 45.40625 37.203125 41.296875 42.84375 
Q 37.203125 48.484375 30.078125 48.484375 
Q 22.953125 48.484375 18.875 42.84375 
Q 14.796875 37.203125 14.796875 27.296875 
z
M 45.40625 8.203125 
Q 42.578125 3.328125 38.25 0.953125 
Q 33.9375 -1.421875 27.875 -1.421875 
Q 17.96875 -1.421875 11.734375 6.484375 
Q 5.515625 14.40625 5.515625 27.296875 
Q 5.515625 40.1875 11.734375 48.09375 
Q 17.96875 56 27.875 56 
Q 33.9375 56 38.25 53.625 
Q 42.578125 51.265625 45.40625 46.390625 
L 45.40625 54.6875 
L 54.390625 54.6875 
L 54.390625 -20.796875 
L 45.40625 -20.796875 
z
" id="DejaVuSans-71"/>
      <path d="M 32.171875 -5.078125 
Q 28.375 -14.84375 24.75 -17.8125 
Q 21.140625 -20.796875 15.09375 -20.796875 
L 7.90625 -20.796875 
L 7.90625 -13.28125 
L 13.1875 -13.28125 
Q 16.890625 -13.28125 18.9375 -11.515625 
Q 21 -9.765625 23.484375 -3.21875 
L 25.09375 0.875 
L 2.984375 54.6875 
L 12.5 54.6875 
L 29.59375 11.921875 
L 46.6875 54.6875 
L 56.203125 54.6875 
z
" id="DejaVuSans-79"/>
     </defs>
     <g style="fill:#555555;" transform="translate(16.318125 236.421)rotate(-90)scale(0.12 -0.12)">
      <use xlink:href="#DejaVuSans-53"/>
      <use x="63.476562" xlink:href="#DejaVuSans-65"/>
      <use x="125" xlink:href="#DejaVuSans-6e"/>
      <use x="188.378906" xlink:href="#DejaVuSans-74"/>
      <use x="227.587891" xlink:href="#DejaVuSans-65"/>
      <use x="289.111328" xlink:href="#DejaVuSans-6e"/>
      <use x="352.490234" xlink:href="#DejaVuSans-63"/>
      <use x="407.470703" xlink:href="#DejaVuSans-65"/>
      <use x="468.994141" xlink:href="#DejaVuSans-20"/>
      <use x="500.78125" xlink:href="#DejaVuSans-46"/>
      <use x="558.191406" xlink:href="#DejaVuSans-72"/>
      <use x="599.273438" xlink:href="#DejaVuSans-65"/>
      <use x="660.796875" xlink:href="#DejaVuSans-71"/>
      <use x="724.273438" xlink:href="#DejaVuSans-75"/>
      <use x="787.652344" xlink:href="#DejaVuSans-65"/>
      <use x="849.175781" xlink:href="#DejaVuSans-6e"/>
      <use x="912.554688" xlink:href="#DejaVuSans-63"/>
      <use x="967.535156" xlink:href="#DejaVuSans-79"/>
     </g>
    </g>
   </g>
   <g id="patch_3">
    <path clip-path="url(#p60407cb169)" d="M 65.133977 307.872 
L 66.968184 307.872 
L 66.968184 98.643892 
L 65.133977 98.643892 
z
" style="fill:#e24a33;"/>
   </g>
   <g id="patch_4">
    <path clip-path="url(#p60407cb169)" d="M 66.968184 307.872 
L 68.80239 307.872 
L 68.80239 307.872 
L 66.968184 307.872 
z
" style="fill:#e24a33;"/>
   </g>
   <g id="patch_5">
    <path clip-path="url(#p60407cb169)" d="M 68.80239 307.872 
L 70.636597 307.872 
L 70.636597 54.432 
L 68.80239 54.432 
z
" style="fill:#e24a33;"/>
   </g>
   <g id="patch_6">
    <path clip-path="url(#p60407cb169)" d="M 70.636597 307.872 
L 72.470803 307.872 
L 72.470803 307.872 
L 70.636597 307.872 
z
" style="fill:#e24a33;"/>
   </g>
   <g id="patch_7">
    <path clip-path="url(#p60407cb169)" d="M 72.470803 307.872 
L 74.30501 307.872 
L 74.30501 307.872 
L 72.470803 307.872 
z
" style="fill:#e24a33;"/>
   </g>
   <g id="patch_8">
    <path clip-path="url(#p60407cb169)" d="M 74.30501 307.872 
L 76.139216 307.872 
L 76.139216 123.552 
L 74.30501 123.552 
z
" style="fill:#e24a33;"/>
   </g>
   <g id="patch_9">
    <path clip-path="url(#p60407cb169)" d="M 76.139216 307.872 
L 77.973423 307.872 
L 77.973423 307.872 
L 76.139216 307.872 
z
" style="fill:#e24a33;"/>
   </g>
   <g id="patch_10">
    <path clip-path="url(#p60407cb169)" d="M 77.973423 307.872 
L 79.807629 307.872 
L 79.807629 188.00173 
L 77.973423 188.00173 
z
" style="fill:#e24a33;"/>
   </g>
   <g id="patch_11">
    <path clip-path="url(#p60407cb169)" d="M 79.807629 307.872 
L 81.641836 307.872 
L 81.641836 307.872 
L 79.807629 307.872 
z
" style="fill:#e24a33;"/>
   </g>
   <g id="patch_12">
    <path clip-path="url(#p60407cb169)" d="M 81.641836 307.872 
L 83.476042 307.872 
L 83.476042 307.872 
L 81.641836 307.872 
z
" style="fill:#e24a33;"/>
   </g>
   <g id="patch_13">
    <path clip-path="url(#p60407cb169)" d="M 83.476042 307.872 
L 85.310248 307.872 
L 85.310248 227.543351 
L 83.476042 227.543351 
z
" style="fill:#e24a33;"/>
   </g>
   <g id="patch_14">
    <path clip-path="url(#p60407cb169)" d="M 85.310248 307.872 
L 87.144455 307.872 
L 87.144455 307.872 
L 85.310248 307.872 
z
" style="fill:#e24a33;"/>
   </g>
   <g id="patch_15">
    <path clip-path="url(#p60407cb169)" d="M 87.144455 307.872 
L 88.978661 307.872 
L 88.978661 243.42227 
L 87.144455 243.42227 
z
" style="fill:#e24a33;"/>
   </g>
   <g id="patch_16">
    <path clip-path="url(#p60407cb169)" d="M 88.978661 307.872 
L 90.812868 307.872 
L 90.812868 307.872 
L 88.978661 307.872 
z
" style="fill:#e24a33;"/>
   </g>
   <g id="patch_17">
    <path clip-path="url(#p60407cb169)" d="M 90.812868 307.872 
L 92.647074 307.872 
L 92.647074 307.872 
L 90.812868 307.872 
z
" style="fill:#e24a33;"/>
   </g>
   <g id="patch_18">
    <path clip-path="url(#p60407cb169)" d="M 92.647074 307.872 
L 94.481281 307.872 
L 94.481281 268.64173 
L 92.647074 268.64173 
z
" style="fill:#e24a33;"/>
   </g>
   <g id="patch_19">
    <path clip-path="url(#p60407cb169)" d="M 94.481281 307.872 
L 96.315487 307.872 
L 96.315487 307.872 
L 94.481281 307.872 
z
" style="fill:#e24a33;"/>
   </g>
   <g id="patch_20">
    <path clip-path="url(#p60407cb169)" d="M 96.315487 307.872 
L 98.149694 307.872 
L 98.149694 273.312 
L 96.315487 273.312 
z
" style="fill:#e24a33;"/>
   </g>
   <g id="patch_21">
    <path clip-path="url(#p60407cb169)" d="M 98.149694 307.872 
L 99.9839 307.872 
L 99.9839 307.872 
L 98.149694 307.872 
z
" style="fill:#e24a33;"/>
   </g>
   <g id="patch_22">
    <path clip-path="url(#p60407cb169)" d="M 99.9839 307.872 
L 101.818107 307.872 
L 101.818107 307.872 
L 99.9839 307.872 
z
" style="fill:#e24a33;"/>
   </g>
   <g id="patch_23">
    <path clip-path="url(#p60407cb169)" d="M 101.818107 307.872 
L 103.652313 307.872 
L 103.652313 288.568216 
L 101.818107 288.568216 
z
" style="fill:#e24a33;"/>
   </g>
   <g id="patch_24">
    <path clip-path="url(#p60407cb169)" d="M 103.652313 307.872 
L 105.48652 307.872 
L 105.48652 307.872 
L 103.652313 307.872 
z
" style="fill:#e24a33;"/>
   </g>
   <g id="patch_25">
    <path clip-path="url(#p60407cb169)" d="M 105.48652 307.872 
L 107.320726 307.872 
L 107.320726 290.436324 
L 105.48652 290.436324 
z
" style="fill:#e24a33;"/>
   </g>
   <g id="patch_26">
    <path clip-path="url(#p60407cb169)" d="M 107.320726 307.872 
L 109.154933 307.872 
L 109.154933 307.872 
L 107.320726 307.872 
z
" style="fill:#e24a33;"/>
   </g>
   <g id="patch_27">
    <path clip-path="url(#p60407cb169)" d="M 109.154933 307.872 
L 110.989139 307.872 
L 110.989139 307.872 
L 109.154933 307.872 
z
" style="fill:#e24a33;"/>
   </g>
   <g id="patch_28">
    <path clip-path="url(#p60407cb169)" d="M 110.989139 307.872 
L 112.823346 307.872 
L 112.823346 295.729297 
L 110.989139 295.729297 
z
" style="fill:#e24a33;"/>
   </g>
   <g id="patch_29">
    <path clip-path="url(#p60407cb169)" d="M 112.823346 307.872 
L 114.657552 307.872 
L 114.657552 307.872 
L 112.823346 307.872 
z
" style="fill:#e24a33;"/>
   </g>
   <g id="patch_30">
    <path clip-path="url(#p60407cb169)" d="M 114.657552 307.872 
L 116.491758 307.872 
L 116.491758 294.795243 
L 114.657552 294.795243 
z
" style="fill:#e24a33;"/>
   </g>
   <g id="patch_31">
    <path clip-path="url(#p60407cb169)" d="M 116.491758 307.872 
L 118.325965 307.872 
L 118.325965 307.872 
L 116.491758 307.872 
z
" style="fill:#e24a33;"/>
   </g>
   <g id="patch_32">
    <path clip-path="url(#p60407cb169)" d="M 118.325965 307.872 
L 120.160171 307.872 
L 120.160171 307.872 
L 118.325965 307.872 
z
" style="fill:#e24a33;"/>
   </g>
   <g id="patch_33">
    <path clip-path="url(#p60407cb169)" d="M 120.160171 307.872 
L 121.994378 307.872 
L 121.994378 300.399568 
L 120.160171 300.399568 
z
" style="fill:#e24a33;"/>
   </g>
   <g id="patch_34">
    <path clip-path="url(#p60407cb169)" d="M 121.994378 307.872 
L 123.828584 307.872 
L 123.828584 307.872 
L 121.994378 307.872 
z
" style="fill:#e24a33;"/>
   </g>
   <g id="patch_35">
    <path clip-path="url(#p60407cb169)" d="M 123.828584 307.872 
L 125.662791 307.872 
L 125.662791 301.333622 
L 123.828584 301.333622 
z
" style="fill:#e24a33;"/>
   </g>
   <g id="patch_36">
    <path clip-path="url(#p60407cb169)" d="M 125.662791 307.872 
L 127.496997 307.872 
L 127.496997 307.872 
L 125.662791 307.872 
z
" style="fill:#e24a33;"/>
   </g>
   <g id="patch_37">
    <path clip-path="url(#p60407cb169)" d="M 127.496997 307.872 
L 129.331204 307.872 
L 129.331204 307.872 
L 127.496997 307.872 
z
" style="fill:#e24a33;"/>
   </g>
   <g id="patch_38">
    <path clip-path="url(#p60407cb169)" d="M 129.331204 307.872 
L 131.16541 307.872 
L 131.16541 301.956324 
L 129.331204 301.956324 
z
" style="fill:#e24a33;"/>
   </g>
   <g id="patch_39">
    <path clip-path="url(#p60407cb169)" d="M 131.16541 307.872 
L 132.999617 307.872 
L 132.999617 307.872 
L 131.16541 307.872 
z
" style="fill:#e24a33;"/>
   </g>
   <g id="patch_40">
    <path clip-path="url(#p60407cb169)" d="M 132.999617 307.872 
L 134.833823 307.872 
L 134.833823 304.447135 
L 132.999617 304.447135 
z
" style="fill:#e24a33;"/>
   </g>
   <g id="patch_41">
    <path clip-path="url(#p60407cb169)" d="M 134.833823 307.872 
L 136.66803 307.872 
L 136.66803 307.872 
L 134.833823 307.872 
z
" style="fill:#e24a33;"/>
   </g>
   <g id="patch_42">
    <path clip-path="url(#p60407cb169)" d="M 136.66803 307.872 
L 138.502236 307.872 
L 138.502236 307.872 
L 136.66803 307.872 
z
" style="fill:#e24a33;"/>
   </g>
   <g id="patch_43">
    <path clip-path="url(#p60407cb169)" d="M 138.502236 307.872 
L 140.336443 307.872 
L 140.336443 305.381189 
L 138.502236 305.381189 
z
" style="fill:#e24a33;"/>
   </g>
   <g id="patch_44">
    <path clip-path="url(#p60407cb169)" d="M 140.336443 307.872 
L 142.170649 307.872 
L 142.170649 307.872 
L 140.336443 307.872 
z
" style="fill:#e24a33;"/>
   </g>
   <g id="patch_45">
    <path clip-path="url(#p60407cb169)" d="M 142.170649 307.872 
L 144.004856 307.872 
L 144.004856 306.003892 
L 142.170649 306.003892 
z
" style="fill:#e24a33;"/>
   </g>
   <g id="patch_46">
    <path clip-path="url(#p60407cb169)" d="M 144.004856 307.872 
L 145.839062 307.872 
L 145.839062 307.872 
L 144.004856 307.872 
z
" style="fill:#e24a33;"/>
   </g>
   <g id="patch_47">
    <path clip-path="url(#p60407cb169)" d="M 145.839062 307.872 
L 147.673268 307.872 
L 147.673268 307.872 
L 145.839062 307.872 
z
" style="fill:#e24a33;"/>
   </g>
   <g id="patch_48">
    <path clip-path="url(#p60407cb169)" d="M 147.673268 307.872 
L 149.507475 307.872 
L 149.507475 305.692541 
L 147.673268 305.692541 
z
" style="fill:#e24a33;"/>
   </g>
   <g id="patch_49">
    <path clip-path="url(#p60407cb169)" d="M 149.507475 307.872 
L 151.341681 307.872 
L 151.341681 307.872 
L 149.507475 307.872 
z
" style="fill:#e24a33;"/>
   </g>
   <g id="patch_50">
    <path clip-path="url(#p60407cb169)" d="M 151.341681 307.872 
L 153.175888 307.872 
L 153.175888 307.872 
L 151.341681 307.872 
z
" style="fill:#e24a33;"/>
   </g>
   <g id="patch_51">
    <path clip-path="url(#p60407cb169)" d="M 153.175888 307.872 
L 155.010094 307.872 
L 155.010094 306.937946 
L 153.175888 306.937946 
z
" style="fill:#e24a33;"/>
   </g>
   <g id="patch_52">
    <path clip-path="url(#p60407cb169)" d="M 155.010094 307.872 
L 156.844301 307.872 
L 156.844301 307.872 
L 155.010094 307.872 
z
" style="fill:#e24a33;"/>
   </g>
   <g id="patch_53">
    <path clip-path="url(#p60407cb169)" d="M 156.844301 307.872 
L 158.678507 307.872 
L 158.678507 307.872 
L 156.844301 307.872 
z
" style="fill:#e24a33;"/>
   </g>
   <g id="patch_54">
    <path clip-path="url(#p60407cb169)" d="M 158.678507 307.872 
L 160.512714 307.872 
L 160.512714 307.872 
L 158.678507 307.872 
z
" style="fill:#e24a33;"/>
   </g>
   <g id="patch_55">
    <path clip-path="url(#p60407cb169)" d="M 160.512714 307.872 
L 162.34692 307.872 
L 162.34692 307.872 
L 160.512714 307.872 
z
" style="fill:#e24a33;"/>
   </g>
   <g id="patch_56">
    <path clip-path="url(#p60407cb169)" d="M 162.34692 307.872 
L 164.181127 307.872 
L 164.181127 307.560649 
L 162.34692 307.560649 
z
" style="fill:#e24a33;"/>
   </g>
   <g id="patch_57">
    <path clip-path="url(#p60407cb169)" d="M 164.181127 307.872 
L 166.015333 307.872 
L 166.015333 307.872 
L 164.181127 307.872 
z
" style="fill:#e24a33;"/>
   </g>
   <g id="patch_58">
    <path clip-path="url(#p60407cb169)" d="M 166.015333 307.872 
L 167.84954 307.872 
L 167.84954 306.937946 
L 166.015333 306.937946 
z
" style="fill:#e24a33;"/>
   </g>
   <g id="patch_59">
    <path clip-path="url(#p60407cb169)" d="M 167.84954 307.872 
L 169.683746 307.872 
L 169.683746 307.872 
L 167.84954 307.872 
z
" style="fill:#e24a33;"/>
   </g>
   <g id="patch_60">
    <path clip-path="url(#p60407cb169)" d="M 169.683746 307.872 
L 171.517953 307.872 
L 171.517953 307.872 
L 169.683746 307.872 
z
" style="fill:#e24a33;"/>
   </g>
   <g id="patch_61">
    <path clip-path="url(#p60407cb169)" d="M 171.517953 307.872 
L 173.352159 307.872 
L 173.352159 306.003892 
L 171.517953 306.003892 
z
" style="fill:#e24a33;"/>
   </g>
   <g id="patch_62">
    <path clip-path="url(#p60407cb169)" d="M 173.352159 307.872 
L 175.186366 307.872 
L 175.186366 307.872 
L 173.352159 307.872 
z
" style="fill:#e24a33;"/>
   </g>
   <g id="patch_63">
    <path clip-path="url(#p60407cb169)" d="M 175.186366 307.872 
L 177.020572 307.872 
L 177.020572 306.937946 
L 175.186366 306.937946 
z
" style="fill:#e24a33;"/>
   </g>
   <g id="patch_64">
    <path clip-path="url(#p60407cb169)" d="M 177.020572 307.872 
L 178.854779 307.872 
L 178.854779 307.872 
L 177.020572 307.872 
z
" style="fill:#e24a33;"/>
   </g>
   <g id="patch_65">
    <path clip-path="url(#p60407cb169)" d="M 178.854779 307.872 
L 180.688985 307.872 
L 180.688985 307.872 
L 178.854779 307.872 
z
" style="fill:#e24a33;"/>
   </g>
   <g id="patch_66">
    <path clip-path="url(#p60407cb169)" d="M 180.688985 307.872 
L 182.523191 307.872 
L 182.523191 307.249297 
L 180.688985 307.249297 
z
" style="fill:#e24a33;"/>
   </g>
   <g id="patch_67">
    <path clip-path="url(#p60407cb169)" d="M 182.523191 307.872 
L 184.357398 307.872 
L 184.357398 307.872 
L 182.523191 307.872 
z
" style="fill:#e24a33;"/>
   </g>
   <g id="patch_68">
    <path clip-path="url(#p60407cb169)" d="M 184.357398 307.872 
L 186.191604 307.872 
L 186.191604 307.872 
L 184.357398 307.872 
z
" style="fill:#e24a33;"/>
   </g>
   <g id="patch_69">
    <path clip-path="url(#p60407cb169)" d="M 186.191604 307.872 
L 188.025811 307.872 
L 188.025811 307.872 
L 186.191604 307.872 
z
" style="fill:#e24a33;"/>
   </g>
   <g id="patch_70">
    <path clip-path="url(#p60407cb169)" d="M 188.025811 307.872 
L 189.860017 307.872 
L 189.860017 307.872 
L 188.025811 307.872 
z
" style="fill:#e24a33;"/>
   </g>
   <g id="patch_71">
    <path clip-path="url(#p60407cb169)" d="M 189.860017 307.872 
L 191.694224 307.872 
L 191.694224 307.560649 
L 189.860017 307.560649 
z
" style="fill:#e24a33;"/>
   </g>
   <g id="patch_72">
    <path clip-path="url(#p60407cb169)" d="M 191.694224 307.872 
L 193.52843 307.872 
L 193.52843 307.872 
L 191.694224 307.872 
z
" style="fill:#e24a33;"/>
   </g>
   <g id="patch_73">
    <path clip-path="url(#p60407cb169)" d="M 193.52843 307.872 
L 195.362637 307.872 
L 195.362637 307.872 
L 193.52843 307.872 
z
" style="fill:#e24a33;"/>
   </g>
   <g id="patch_74">
    <path clip-path="url(#p60407cb169)" d="M 195.362637 307.872 
L 197.196843 307.872 
L 197.196843 307.872 
L 195.362637 307.872 
z
" style="fill:#e24a33;"/>
   </g>
   <g id="patch_75">
    <path clip-path="url(#p60407cb169)" d="M 197.196843 307.872 
L 199.03105 307.872 
L 199.03105 307.872 
L 197.196843 307.872 
z
" style="fill:#e24a33;"/>
   </g>
   <g id="patch_76">
    <path clip-path="url(#p60407cb169)" d="M 199.03105 307.872 
L 200.865256 307.872 
L 200.865256 307.872 
L 199.03105 307.872 
z
" style="fill:#e24a33;"/>
   </g>
   <g id="patch_77">
    <path clip-path="url(#p60407cb169)" d="M 200.865256 307.872 
L 202.699463 307.872 
L 202.699463 307.872 
L 200.865256 307.872 
z
" style="fill:#e24a33;"/>
   </g>
   <g id="patch_78">
    <path clip-path="url(#p60407cb169)" d="M 202.699463 307.872 
L 204.533669 307.872 
L 204.533669 307.560649 
L 202.699463 307.560649 
z
" style="fill:#e24a33;"/>
   </g>
   <g id="patch_79">
    <path clip-path="url(#p60407cb169)" d="M 204.533669 307.872 
L 206.367876 307.872 
L 206.367876 307.872 
L 204.533669 307.872 
z
" style="fill:#e24a33;"/>
   </g>
   <g id="patch_80">
    <path clip-path="url(#p60407cb169)" d="M 206.367876 307.872 
L 208.202082 307.872 
L 208.202082 307.872 
L 206.367876 307.872 
z
" style="fill:#e24a33;"/>
   </g>
   <g id="patch_81">
    <path clip-path="url(#p60407cb169)" d="M 208.202082 307.872 
L 210.036289 307.872 
L 210.036289 307.560649 
L 208.202082 307.560649 
z
" style="fill:#e24a33;"/>
   </g>
   <g id="patch_82">
    <path clip-path="url(#p60407cb169)" d="M 210.036289 307.872 
L 211.870495 307.872 
L 211.870495 307.872 
L 210.036289 307.872 
z
" style="fill:#e24a33;"/>
   </g>
   <g id="patch_83">
    <path clip-path="url(#p60407cb169)" d="M 211.870495 307.872 
L 213.704701 307.872 
L 213.704701 307.872 
L 211.870495 307.872 
z
" style="fill:#e24a33;"/>
   </g>
   <g id="patch_84">
    <path clip-path="url(#p60407cb169)" d="M 213.704701 307.872 
L 215.538908 307.872 
L 215.538908 307.872 
L 213.704701 307.872 
z
" style="fill:#e24a33;"/>
   </g>
   <g id="patch_85">
    <path clip-path="url(#p60407cb169)" d="M 215.538908 307.872 
L 217.373114 307.872 
L 217.373114 307.872 
L 215.538908 307.872 
z
" style="fill:#e24a33;"/>
   </g>
   <g id="patch_86">
    <path clip-path="url(#p60407cb169)" d="M 217.373114 307.872 
L 219.207321 307.872 
L 219.207321 307.872 
L 217.373114 307.872 
z
" style="fill:#e24a33;"/>
   </g>
   <g id="patch_87">
    <path clip-path="url(#p60407cb169)" d="M 219.207321 307.872 
L 221.041527 307.872 
L 221.041527 307.872 
L 219.207321 307.872 
z
" style="fill:#e24a33;"/>
   </g>
   <g id="patch_88">
    <path clip-path="url(#p60407cb169)" d="M 221.041527 307.872 
L 222.875734 307.872 
L 222.875734 307.872 
L 221.041527 307.872 
z
" style="fill:#e24a33;"/>
   </g>
   <g id="patch_89">
    <path clip-path="url(#p60407cb169)" d="M 222.875734 307.872 
L 224.70994 307.872 
L 224.70994 307.872 
L 222.875734 307.872 
z
" style="fill:#e24a33;"/>
   </g>
   <g id="patch_90">
    <path clip-path="url(#p60407cb169)" d="M 224.70994 307.872 
L 226.544147 307.872 
L 226.544147 307.872 
L 224.70994 307.872 
z
" style="fill:#e24a33;"/>
   </g>
   <g id="patch_91">
    <path clip-path="url(#p60407cb169)" d="M 226.544147 307.872 
L 228.378353 307.872 
L 228.378353 307.872 
L 226.544147 307.872 
z
" style="fill:#e24a33;"/>
   </g>
   <g id="patch_92">
    <path clip-path="url(#p60407cb169)" d="M 228.378353 307.872 
L 230.21256 307.872 
L 230.21256 307.872 
L 228.378353 307.872 
z
" style="fill:#e24a33;"/>
   </g>
   <g id="patch_93">
    <path clip-path="url(#p60407cb169)" d="M 230.21256 307.872 
L 232.046766 307.872 
L 232.046766 307.872 
L 230.21256 307.872 
z
" style="fill:#e24a33;"/>
   </g>
   <g id="patch_94">
    <path clip-path="url(#p60407cb169)" d="M 232.046766 307.872 
L 233.880973 307.872 
L 233.880973 307.872 
L 232.046766 307.872 
z
" style="fill:#e24a33;"/>
   </g>
   <g id="patch_95">
    <path clip-path="url(#p60407cb169)" d="M 233.880973 307.872 
L 235.715179 307.872 
L 235.715179 307.872 
L 233.880973 307.872 
z
" style="fill:#e24a33;"/>
   </g>
   <g id="patch_96">
    <path clip-path="url(#p60407cb169)" d="M 235.715179 307.872 
L 237.549386 307.872 
L 237.549386 307.872 
L 235.715179 307.872 
z
" style="fill:#e24a33;"/>
   </g>
   <g id="patch_97">
    <path clip-path="url(#p60407cb169)" d="M 237.549386 307.872 
L 239.383592 307.872 
L 239.383592 307.872 
L 237.549386 307.872 
z
" style="fill:#e24a33;"/>
   </g>
   <g id="patch_98">
    <path clip-path="url(#p60407cb169)" d="M 239.383592 307.872 
L 241.217799 307.872 
L 241.217799 307.872 
L 239.383592 307.872 
z
" style="fill:#e24a33;"/>
   </g>
   <g id="patch_99">
    <path clip-path="url(#p60407cb169)" d="M 241.217799 307.872 
L 243.052005 307.872 
L 243.052005 307.560649 
L 241.217799 307.560649 
z
" style="fill:#e24a33;"/>
   </g>
   <g id="patch_100">
    <path clip-path="url(#p60407cb169)" d="M 243.052005 307.872 
L 244.886211 307.872 
L 244.886211 307.872 
L 243.052005 307.872 
z
" style="fill:#e24a33;"/>
   </g>
   <g id="patch_101">
    <path clip-path="url(#p60407cb169)" d="M 244.886211 307.872 
L 246.720418 307.872 
L 246.720418 307.560649 
L 244.886211 307.560649 
z
" style="fill:#e24a33;"/>
   </g>
   <g id="patch_102">
    <path clip-path="url(#p60407cb169)" d="M 246.720418 307.872 
L 248.554624 307.872 
L 248.554624 307.872 
L 246.720418 307.872 
z
" style="fill:#e24a33;"/>
   </g>
   <g id="patch_103">
    <path clip-path="url(#p60407cb169)" d="M 248.554624 307.872 
L 250.388831 307.872 
L 250.388831 307.872 
L 248.554624 307.872 
z
" style="fill:#e24a33;"/>
   </g>
   <g id="patch_104">
    <path clip-path="url(#p60407cb169)" d="M 250.388831 307.872 
L 252.223037 307.872 
L 252.223037 307.872 
L 250.388831 307.872 
z
" style="fill:#e24a33;"/>
   </g>
   <g id="patch_105">
    <path clip-path="url(#p60407cb169)" d="M 252.223037 307.872 
L 254.057244 307.872 
L 254.057244 307.872 
L 252.223037 307.872 
z
" style="fill:#e24a33;"/>
   </g>
   <g id="patch_106">
    <path clip-path="url(#p60407cb169)" d="M 254.057244 307.872 
L 255.89145 307.872 
L 255.89145 307.560649 
L 254.057244 307.560649 
z
" style="fill:#e24a33;"/>
   </g>
   <g id="patch_107">
    <path clip-path="url(#p60407cb169)" d="M 255.89145 307.872 
L 257.725657 307.872 
L 257.725657 307.872 
L 255.89145 307.872 
z
" style="fill:#e24a33;"/>
   </g>
   <g id="patch_108">
    <path clip-path="url(#p60407cb169)" d="M 257.725657 307.872 
L 259.559863 307.872 
L 259.559863 307.872 
L 257.725657 307.872 
z
" style="fill:#e24a33;"/>
   </g>
   <g id="patch_109">
    <path clip-path="url(#p60407cb169)" d="M 259.559863 307.872 
L 261.39407 307.872 
L 261.39407 307.872 
L 259.559863 307.872 
z
" style="fill:#e24a33;"/>
   </g>
   <g id="patch_110">
    <path clip-path="url(#p60407cb169)" d="M 261.39407 307.872 
L 263.228276 307.872 
L 263.228276 307.872 
L 261.39407 307.872 
z
" style="fill:#e24a33;"/>
   </g>
   <g id="patch_111">
    <path clip-path="url(#p60407cb169)" d="M 263.228276 307.872 
L 265.062483 307.872 
L 265.062483 307.872 
L 263.228276 307.872 
z
" style="fill:#e24a33;"/>
   </g>
   <g id="patch_112">
    <path clip-path="url(#p60407cb169)" d="M 265.062483 307.872 
L 266.896689 307.872 
L 266.896689 307.872 
L 265.062483 307.872 
z
" style="fill:#e24a33;"/>
   </g>
   <g id="patch_113">
    <path clip-path="url(#p60407cb169)" d="M 266.896689 307.872 
L 268.730896 307.872 
L 268.730896 307.872 
L 266.896689 307.872 
z
" style="fill:#e24a33;"/>
   </g>
   <g id="patch_114">
    <path clip-path="url(#p60407cb169)" d="M 268.730896 307.872 
L 270.565102 307.872 
L 270.565102 307.872 
L 268.730896 307.872 
z
" style="fill:#e24a33;"/>
   </g>
   <g id="patch_115">
    <path clip-path="url(#p60407cb169)" d="M 270.565102 307.872 
L 272.399309 307.872 
L 272.399309 307.872 
L 270.565102 307.872 
z
" style="fill:#e24a33;"/>
   </g>
   <g id="patch_116">
    <path clip-path="url(#p60407cb169)" d="M 272.399309 307.872 
L 274.233515 307.872 
L 274.233515 307.872 
L 272.399309 307.872 
z
" style="fill:#e24a33;"/>
   </g>
   <g id="patch_117">
    <path clip-path="url(#p60407cb169)" d="M 274.233515 307.872 
L 276.067721 307.872 
L 276.067721 307.872 
L 274.233515 307.872 
z
" style="fill:#e24a33;"/>
   </g>
   <g id="patch_118">
    <path clip-path="url(#p60407cb169)" d="M 276.067721 307.872 
L 277.901928 307.872 
L 277.901928 307.872 
L 276.067721 307.872 
z
" style="fill:#e24a33;"/>
   </g>
   <g id="patch_119">
    <path clip-path="url(#p60407cb169)" d="M 277.901928 307.872 
L 279.736134 307.872 
L 279.736134 307.872 
L 277.901928 307.872 
z
" style="fill:#e24a33;"/>
   </g>
   <g id="patch_120">
    <path clip-path="url(#p60407cb169)" d="M 279.736134 307.872 
L 281.570341 307.872 
L 281.570341 307.872 
L 279.736134 307.872 
z
" style="fill:#e24a33;"/>
   </g>
   <g id="patch_121">
    <path clip-path="url(#p60407cb169)" d="M 281.570341 307.872 
L 283.404547 307.872 
L 283.404547 307.560649 
L 281.570341 307.560649 
z
" style="fill:#e24a33;"/>
   </g>
   <g id="patch_122">
    <path clip-path="url(#p60407cb169)" d="M 283.404547 307.872 
L 285.238754 307.872 
L 285.238754 307.872 
L 283.404547 307.872 
z
" style="fill:#e24a33;"/>
   </g>
   <g id="patch_123">
    <path clip-path="url(#p60407cb169)" d="M 285.238754 307.872 
L 287.07296 307.872 
L 287.07296 307.872 
L 285.238754 307.872 
z
" style="fill:#e24a33;"/>
   </g>
   <g id="patch_124">
    <path clip-path="url(#p60407cb169)" d="M 287.07296 307.872 
L 288.907167 307.872 
L 288.907167 307.872 
L 287.07296 307.872 
z
" style="fill:#e24a33;"/>
   </g>
   <g id="patch_125">
    <path clip-path="url(#p60407cb169)" d="M 288.907167 307.872 
L 290.741373 307.872 
L 290.741373 307.872 
L 288.907167 307.872 
z
" style="fill:#e24a33;"/>
   </g>
   <g id="patch_126">
    <path clip-path="url(#p60407cb169)" d="M 290.741373 307.872 
L 292.57558 307.872 
L 292.57558 307.872 
L 290.741373 307.872 
z
" style="fill:#e24a33;"/>
   </g>
   <g id="patch_127">
    <path clip-path="url(#p60407cb169)" d="M 292.57558 307.872 
L 294.409786 307.872 
L 294.409786 307.872 
L 292.57558 307.872 
z
" style="fill:#e24a33;"/>
   </g>
   <g id="patch_128">
    <path clip-path="url(#p60407cb169)" d="M 294.409786 307.872 
L 296.243993 307.872 
L 296.243993 307.872 
L 294.409786 307.872 
z
" style="fill:#e24a33;"/>
   </g>
   <g id="patch_129">
    <path clip-path="url(#p60407cb169)" d="M 296.243993 307.872 
L 298.078199 307.872 
L 298.078199 307.872 
L 296.243993 307.872 
z
" style="fill:#e24a33;"/>
   </g>
   <g id="patch_130">
    <path clip-path="url(#p60407cb169)" d="M 298.078199 307.872 
L 299.912406 307.872 
L 299.912406 307.872 
L 298.078199 307.872 
z
" style="fill:#e24a33;"/>
   </g>
   <g id="patch_131">
    <path clip-path="url(#p60407cb169)" d="M 299.912406 307.872 
L 301.746612 307.872 
L 301.746612 307.872 
L 299.912406 307.872 
z
" style="fill:#e24a33;"/>
   </g>
   <g id="patch_132">
    <path clip-path="url(#p60407cb169)" d="M 301.746612 307.872 
L 303.580819 307.872 
L 303.580819 307.872 
L 301.746612 307.872 
z
" style="fill:#e24a33;"/>
   </g>
   <g id="patch_133">
    <path clip-path="url(#p60407cb169)" d="M 303.580819 307.872 
L 305.415025 307.872 
L 305.415025 307.872 
L 303.580819 307.872 
z
" style="fill:#e24a33;"/>
   </g>
   <g id="patch_134">
    <path clip-path="url(#p60407cb169)" d="M 305.415025 307.872 
L 307.249232 307.872 
L 307.249232 307.872 
L 305.415025 307.872 
z
" style="fill:#e24a33;"/>
   </g>
   <g id="patch_135">
    <path clip-path="url(#p60407cb169)" d="M 307.249232 307.872 
L 309.083438 307.872 
L 309.083438 307.872 
L 307.249232 307.872 
z
" style="fill:#e24a33;"/>
   </g>
   <g id="patch_136">
    <path clip-path="url(#p60407cb169)" d="M 309.083438 307.872 
L 310.917644 307.872 
L 310.917644 307.872 
L 309.083438 307.872 
z
" style="fill:#e24a33;"/>
   </g>
   <g id="patch_137">
    <path clip-path="url(#p60407cb169)" d="M 310.917644 307.872 
L 312.751851 307.872 
L 312.751851 307.872 
L 310.917644 307.872 
z
" style="fill:#e24a33;"/>
   </g>
   <g id="patch_138">
    <path clip-path="url(#p60407cb169)" d="M 312.751851 307.872 
L 314.586057 307.872 
L 314.586057 307.872 
L 312.751851 307.872 
z
" style="fill:#e24a33;"/>
   </g>
   <g id="patch_139">
    <path clip-path="url(#p60407cb169)" d="M 314.586057 307.872 
L 316.420264 307.872 
L 316.420264 307.872 
L 314.586057 307.872 
z
" style="fill:#e24a33;"/>
   </g>
   <g id="patch_140">
    <path clip-path="url(#p60407cb169)" d="M 316.420264 307.872 
L 318.25447 307.872 
L 318.25447 307.872 
L 316.420264 307.872 
z
" style="fill:#e24a33;"/>
   </g>
   <g id="patch_141">
    <path clip-path="url(#p60407cb169)" d="M 318.25447 307.872 
L 320.088677 307.872 
L 320.088677 307.872 
L 318.25447 307.872 
z
" style="fill:#e24a33;"/>
   </g>
   <g id="patch_142">
    <path clip-path="url(#p60407cb169)" d="M 320.088677 307.872 
L 321.922883 307.872 
L 321.922883 307.872 
L 320.088677 307.872 
z
" style="fill:#e24a33;"/>
   </g>
   <g id="patch_143">
    <path clip-path="url(#p60407cb169)" d="M 321.922883 307.872 
L 323.75709 307.872 
L 323.75709 307.872 
L 321.922883 307.872 
z
" style="fill:#e24a33;"/>
   </g>
   <g id="patch_144">
    <path clip-path="url(#p60407cb169)" d="M 323.75709 307.872 
L 325.591296 307.872 
L 325.591296 307.872 
L 323.75709 307.872 
z
" style="fill:#e24a33;"/>
   </g>
   <g id="patch_145">
    <path clip-path="url(#p60407cb169)" d="M 325.591296 307.872 
L 327.425503 307.872 
L 327.425503 307.872 
L 325.591296 307.872 
z
" style="fill:#e24a33;"/>
   </g>
   <g id="patch_146">
    <path clip-path="url(#p60407cb169)" d="M 327.425503 307.872 
L 329.259709 307.872 
L 329.259709 307.872 
L 327.425503 307.872 
z
" style="fill:#e24a33;"/>
   </g>
   <g id="patch_147">
    <path clip-path="url(#p60407cb169)" d="M 329.259709 307.872 
L 331.093916 307.872 
L 331.093916 307.872 
L 329.259709 307.872 
z
" style="fill:#e24a33;"/>
   </g>
   <g id="patch_148">
    <path clip-path="url(#p60407cb169)" d="M 331.093916 307.872 
L 332.928122 307.872 
L 332.928122 307.872 
L 331.093916 307.872 
z
" style="fill:#e24a33;"/>
   </g>
   <g id="patch_149">
    <path clip-path="url(#p60407cb169)" d="M 332.928122 307.872 
L 334.762329 307.872 
L 334.762329 307.872 
L 332.928122 307.872 
z
" style="fill:#e24a33;"/>
   </g>
   <g id="patch_150">
    <path clip-path="url(#p60407cb169)" d="M 334.762329 307.872 
L 336.596535 307.872 
L 336.596535 307.872 
L 334.762329 307.872 
z
" style="fill:#e24a33;"/>
   </g>
   <g id="patch_151">
    <path clip-path="url(#p60407cb169)" d="M 336.596535 307.872 
L 338.430742 307.872 
L 338.430742 307.872 
L 336.596535 307.872 
z
" style="fill:#e24a33;"/>
   </g>
   <g id="patch_152">
    <path clip-path="url(#p60407cb169)" d="M 338.430742 307.872 
L 340.264948 307.872 
L 340.264948 307.872 
L 338.430742 307.872 
z
" style="fill:#e24a33;"/>
   </g>
   <g id="patch_153">
    <path clip-path="url(#p60407cb169)" d="M 340.264948 307.872 
L 342.099154 307.872 
L 342.099154 307.872 
L 340.264948 307.872 
z
" style="fill:#e24a33;"/>
   </g>
   <g id="patch_154">
    <path clip-path="url(#p60407cb169)" d="M 342.099154 307.872 
L 343.933361 307.872 
L 343.933361 307.872 
L 342.099154 307.872 
z
" style="fill:#e24a33;"/>
   </g>
   <g id="patch_155">
    <path clip-path="url(#p60407cb169)" d="M 343.933361 307.872 
L 345.767567 307.872 
L 345.767567 307.872 
L 343.933361 307.872 
z
" style="fill:#e24a33;"/>
   </g>
   <g id="patch_156">
    <path clip-path="url(#p60407cb169)" d="M 345.767567 307.872 
L 347.601774 307.872 
L 347.601774 307.872 
L 345.767567 307.872 
z
" style="fill:#e24a33;"/>
   </g>
   <g id="patch_157">
    <path clip-path="url(#p60407cb169)" d="M 347.601774 307.872 
L 349.43598 307.872 
L 349.43598 307.872 
L 347.601774 307.872 
z
" style="fill:#e24a33;"/>
   </g>
   <g id="patch_158">
    <path clip-path="url(#p60407cb169)" d="M 349.43598 307.872 
L 351.270187 307.872 
L 351.270187 307.872 
L 349.43598 307.872 
z
" style="fill:#e24a33;"/>
   </g>
   <g id="patch_159">
    <path clip-path="url(#p60407cb169)" d="M 351.270187 307.872 
L 353.104393 307.872 
L 353.104393 307.872 
L 351.270187 307.872 
z
" style="fill:#e24a33;"/>
   </g>
   <g id="patch_160">
    <path clip-path="url(#p60407cb169)" d="M 353.104393 307.872 
L 354.9386 307.872 
L 354.9386 307.872 
L 353.104393 307.872 
z
" style="fill:#e24a33;"/>
   </g>
   <g id="patch_161">
    <path clip-path="url(#p60407cb169)" d="M 354.9386 307.872 
L 356.772806 307.872 
L 356.772806 307.872 
L 354.9386 307.872 
z
" style="fill:#e24a33;"/>
   </g>
   <g id="patch_162">
    <path clip-path="url(#p60407cb169)" d="M 356.772806 307.872 
L 358.607013 307.872 
L 358.607013 307.872 
L 356.772806 307.872 
z
" style="fill:#e24a33;"/>
   </g>
   <g id="patch_163">
    <path clip-path="url(#p60407cb169)" d="M 358.607013 307.872 
L 360.441219 307.872 
L 360.441219 307.872 
L 358.607013 307.872 
z
" style="fill:#e24a33;"/>
   </g>
   <g id="patch_164">
    <path clip-path="url(#p60407cb169)" d="M 360.441219 307.872 
L 362.275426 307.872 
L 362.275426 307.872 
L 360.441219 307.872 
z
" style="fill:#e24a33;"/>
   </g>
   <g id="patch_165">
    <path clip-path="url(#p60407cb169)" d="M 362.275426 307.872 
L 364.109632 307.872 
L 364.109632 307.872 
L 362.275426 307.872 
z
" style="fill:#e24a33;"/>
   </g>
   <g id="patch_166">
    <path clip-path="url(#p60407cb169)" d="M 364.109632 307.872 
L 365.943839 307.872 
L 365.943839 307.872 
L 364.109632 307.872 
z
" style="fill:#e24a33;"/>
   </g>
   <g id="patch_167">
    <path clip-path="url(#p60407cb169)" d="M 365.943839 307.872 
L 367.778045 307.872 
L 367.778045 307.872 
L 365.943839 307.872 
z
" style="fill:#e24a33;"/>
   </g>
   <g id="patch_168">
    <path clip-path="url(#p60407cb169)" d="M 367.778045 307.872 
L 369.612252 307.872 
L 369.612252 307.872 
L 367.778045 307.872 
z
" style="fill:#e24a33;"/>
   </g>
   <g id="patch_169">
    <path clip-path="url(#p60407cb169)" d="M 369.612252 307.872 
L 371.446458 307.872 
L 371.446458 307.872 
L 369.612252 307.872 
z
" style="fill:#e24a33;"/>
   </g>
   <g id="patch_170">
    <path clip-path="url(#p60407cb169)" d="M 371.446458 307.872 
L 373.280664 307.872 
L 373.280664 307.872 
L 371.446458 307.872 
z
" style="fill:#e24a33;"/>
   </g>
   <g id="patch_171">
    <path clip-path="url(#p60407cb169)" d="M 373.280664 307.872 
L 375.114871 307.872 
L 375.114871 307.872 
L 373.280664 307.872 
z
" style="fill:#e24a33;"/>
   </g>
   <g id="patch_172">
    <path clip-path="url(#p60407cb169)" d="M 375.114871 307.872 
L 376.949077 307.872 
L 376.949077 307.872 
L 375.114871 307.872 
z
" style="fill:#e24a33;"/>
   </g>
   <g id="patch_173">
    <path clip-path="url(#p60407cb169)" d="M 376.949077 307.872 
L 378.783284 307.872 
L 378.783284 307.872 
L 376.949077 307.872 
z
" style="fill:#e24a33;"/>
   </g>
   <g id="patch_174">
    <path clip-path="url(#p60407cb169)" d="M 378.783284 307.872 
L 380.61749 307.872 
L 380.61749 307.872 
L 378.783284 307.872 
z
" style="fill:#e24a33;"/>
   </g>
   <g id="patch_175">
    <path clip-path="url(#p60407cb169)" d="M 380.61749 307.872 
L 382.451697 307.872 
L 382.451697 307.872 
L 380.61749 307.872 
z
" style="fill:#e24a33;"/>
   </g>
   <g id="patch_176">
    <path clip-path="url(#p60407cb169)" d="M 382.451697 307.872 
L 384.285903 307.872 
L 384.285903 307.872 
L 382.451697 307.872 
z
" style="fill:#e24a33;"/>
   </g>
   <g id="patch_177">
    <path clip-path="url(#p60407cb169)" d="M 384.285903 307.872 
L 386.12011 307.872 
L 386.12011 307.872 
L 384.285903 307.872 
z
" style="fill:#e24a33;"/>
   </g>
   <g id="patch_178">
    <path clip-path="url(#p60407cb169)" d="M 386.12011 307.872 
L 387.954316 307.872 
L 387.954316 307.872 
L 386.12011 307.872 
z
" style="fill:#e24a33;"/>
   </g>
   <g id="patch_179">
    <path clip-path="url(#p60407cb169)" d="M 387.954316 307.872 
L 389.788523 307.872 
L 389.788523 307.560649 
L 387.954316 307.560649 
z
" style="fill:#e24a33;"/>
   </g>
   <g id="patch_180">
    <path d="M 48.90125 307.872 
L 48.90125 41.76 
" style="fill:none;stroke:#ffffff;stroke-linecap:square;stroke-linejoin:miter;"/>
   </g>
   <g id="patch_181">
    <path d="M 406.02125 307.872 
L 406.02125 41.76 
" style="fill:none;stroke:#ffffff;stroke-linecap:square;stroke-linejoin:miter;"/>
   </g>
   <g id="patch_182">
    <path d="M 48.90125 307.872 
L 406.02125 307.872 
" style="fill:none;stroke:#ffffff;stroke-linecap:square;stroke-linejoin:miter;"/>
   </g>
   <g id="patch_183">
    <path d="M 48.90125 41.76 
L 406.02125 41.76 
" style="fill:none;stroke:#ffffff;stroke-linecap:square;stroke-linejoin:miter;"/>
   </g>
   <g id="text_19">
    <!-- Number Tokens for Sentences -->
    <defs>
     <path d="M 9.8125 72.90625 
L 23.09375 72.90625 
L 55.421875 11.921875 
L 55.421875 72.90625 
L 64.984375 72.90625 
L 64.984375 0 
L 51.703125 0 
L 19.390625 60.984375 
L 19.390625 0 
L 9.8125 0 
z
" id="DejaVuSans-4e"/>
     <path d="M 52 44.1875 
Q 55.375 50.25 60.0625 53.125 
Q 64.75 56 71.09375 56 
Q 79.640625 56 84.28125 50.015625 
Q 88.921875 44.046875 88.921875 33.015625 
L 88.921875 0 
L 79.890625 0 
L 79.890625 32.71875 
Q 79.890625 40.578125 77.09375 44.375 
Q 74.3125 48.1875 68.609375 48.1875 
Q 61.625 48.1875 57.5625 43.546875 
Q 53.515625 38.921875 53.515625 30.90625 
L 53.515625 0 
L 44.484375 0 
L 44.484375 32.71875 
Q 44.484375 40.625 41.703125 44.40625 
Q 38.921875 48.1875 33.109375 48.1875 
Q 26.21875 48.1875 22.15625 43.53125 
Q 18.109375 38.875 18.109375 30.90625 
L 18.109375 0 
L 9.078125 0 
L 9.078125 54.6875 
L 18.109375 54.6875 
L 18.109375 46.1875 
Q 21.1875 51.21875 25.484375 53.609375 
Q 29.78125 56 35.6875 56 
Q 41.65625 56 45.828125 52.96875 
Q 50 49.953125 52 44.1875 
z
" id="DejaVuSans-6d"/>
     <path d="M 48.6875 27.296875 
Q 48.6875 37.203125 44.609375 42.84375 
Q 40.53125 48.484375 33.40625 48.484375 
Q 26.265625 48.484375 22.1875 42.84375 
Q 18.109375 37.203125 18.109375 27.296875 
Q 18.109375 17.390625 22.1875 11.75 
Q 26.265625 6.109375 33.40625 6.109375 
Q 40.53125 6.109375 44.609375 11.75 
Q 48.6875 17.390625 48.6875 27.296875 
z
M 18.109375 46.390625 
Q 20.953125 51.265625 25.265625 53.625 
Q 29.59375 56 35.59375 56 
Q 45.5625 56 51.78125 48.09375 
Q 58.015625 40.1875 58.015625 27.296875 
Q 58.015625 14.40625 51.78125 6.484375 
Q 45.5625 -1.421875 35.59375 -1.421875 
Q 29.59375 -1.421875 25.265625 0.953125 
Q 20.953125 3.328125 18.109375 8.203125 
L 18.109375 0 
L 9.078125 0 
L 9.078125 75.984375 
L 18.109375 75.984375 
z
" id="DejaVuSans-62"/>
     <path d="M 37.109375 75.984375 
L 37.109375 68.5 
L 28.515625 68.5 
Q 23.6875 68.5 21.796875 66.546875 
Q 19.921875 64.59375 19.921875 59.515625 
L 19.921875 54.6875 
L 34.71875 54.6875 
L 34.71875 47.703125 
L 19.921875 47.703125 
L 19.921875 0 
L 10.890625 0 
L 10.890625 47.703125 
L 2.296875 47.703125 
L 2.296875 54.6875 
L 10.890625 54.6875 
L 10.890625 58.5 
Q 10.890625 67.625 15.140625 71.796875 
Q 19.390625 75.984375 28.609375 75.984375 
z
" id="DejaVuSans-66"/>
    </defs>
    <g transform="translate(118.559 35.76)scale(0.144 -0.144)">
     <use xlink:href="#DejaVuSans-4e"/>
     <use x="74.804688" xlink:href="#DejaVuSans-75"/>
     <use x="138.183594" xlink:href="#DejaVuSans-6d"/>
     <use x="235.595703" xlink:href="#DejaVuSans-62"/>
     <use x="299.072266" xlink:href="#DejaVuSans-65"/>
     <use x="360.595703" xlink:href="#DejaVuSans-72"/>
     <use x="401.708984" xlink:href="#DejaVuSans-20"/>
     <use x="433.496094" xlink:href="#DejaVuSans-54"/>
     <use x="494.314453" xlink:href="#DejaVuSans-6f"/>
     <use x="555.496094" xlink:href="#DejaVuSans-6b"/>
     <use x="613.359375" xlink:href="#DejaVuSans-65"/>
     <use x="674.882812" xlink:href="#DejaVuSans-6e"/>
     <use x="738.261719" xlink:href="#DejaVuSans-73"/>
     <use x="790.361328" xlink:href="#DejaVuSans-20"/>
     <use x="822.148438" xlink:href="#DejaVuSans-66"/>
     <use x="857.353516" xlink:href="#DejaVuSans-6f"/>
     <use x="918.535156" xlink:href="#DejaVuSans-72"/>
     <use x="959.648438" xlink:href="#DejaVuSans-20"/>
     <use x="991.435547" xlink:href="#DejaVuSans-53"/>
     <use x="1054.912109" xlink:href="#DejaVuSans-65"/>
     <use x="1116.435547" xlink:href="#DejaVuSans-6e"/>
     <use x="1179.814453" xlink:href="#DejaVuSans-74"/>
     <use x="1219.023438" xlink:href="#DejaVuSans-65"/>
     <use x="1280.546875" xlink:href="#DejaVuSans-6e"/>
     <use x="1343.925781" xlink:href="#DejaVuSans-63"/>
     <use x="1398.90625" xlink:href="#DejaVuSans-65"/>
     <use x="1460.429688" xlink:href="#DejaVuSans-73"/>
    </g>
   </g>
   <g id="legend_1">
    <g id="patch_184">
     <path d="M 395.02125 54.76 
L 399.02125 54.76 
Q 401.02125 54.76 401.02125 52.76 
L 401.02125 48.76 
Q 401.02125 46.76 399.02125 46.76 
L 395.02125 46.76 
Q 393.02125 46.76 393.02125 48.76 
L 393.02125 52.76 
Q 393.02125 54.76 395.02125 54.76 
z
" style="fill:#e5e5e5;opacity:0.8;stroke:#cccccc;stroke-linejoin:miter;stroke-width:0.5;"/>
    </g>
   </g>
  </g>
  <g id="text_20">
   <!-- Dataset Belfast -->
   <defs>
    <path d="M 19.671875 64.796875 
L 19.671875 8.109375 
L 31.59375 8.109375 
Q 46.6875 8.109375 53.6875 14.9375 
Q 60.6875 21.78125 60.6875 36.53125 
Q 60.6875 51.171875 53.6875 57.984375 
Q 46.6875 64.796875 31.59375 64.796875 
z
M 9.8125 72.90625 
L 30.078125 72.90625 
Q 51.265625 72.90625 61.171875 64.09375 
Q 71.09375 55.28125 71.09375 36.53125 
Q 71.09375 17.671875 61.125 8.828125 
Q 51.171875 0 30.078125 0 
L 9.8125 0 
z
" id="DejaVuSans-44"/>
    <path d="M 19.671875 34.8125 
L 19.671875 8.109375 
L 35.5 8.109375 
Q 43.453125 8.109375 47.28125 11.40625 
Q 51.125 14.703125 51.125 21.484375 
Q 51.125 28.328125 47.28125 31.5625 
Q 43.453125 34.8125 35.5 34.8125 
z
M 19.671875 64.796875 
L 19.671875 42.828125 
L 34.28125 42.828125 
Q 41.5 42.828125 45.03125 45.53125 
Q 48.578125 48.25 48.578125 53.8125 
Q 48.578125 59.328125 45.03125 62.0625 
Q 41.5 64.796875 34.28125 64.796875 
z
M 9.8125 72.90625 
L 35.015625 72.90625 
Q 46.296875 72.90625 52.390625 68.21875 
Q 58.5 63.53125 58.5 54.890625 
Q 58.5 48.1875 55.375 44.234375 
Q 52.25 40.28125 46.1875 39.3125 
Q 53.46875 37.75 57.5 32.78125 
Q 61.53125 27.828125 61.53125 20.40625 
Q 61.53125 10.640625 54.890625 5.3125 
Q 48.25 0 35.984375 0 
L 9.8125 0 
z
" id="DejaVuSans-42"/>
    <path d="M 9.421875 75.984375 
L 18.40625 75.984375 
L 18.40625 0 
L 9.421875 0 
z
" id="DejaVuSans-6c"/>
   </defs>
   <g transform="translate(175.556563 16.318125)scale(0.12 -0.12)">
    <use xlink:href="#DejaVuSans-44"/>
    <use x="77.001953" xlink:href="#DejaVuSans-61"/>
    <use x="138.28125" xlink:href="#DejaVuSans-74"/>
    <use x="177.490234" xlink:href="#DejaVuSans-61"/>
    <use x="238.769531" xlink:href="#DejaVuSans-73"/>
    <use x="290.869141" xlink:href="#DejaVuSans-65"/>
    <use x="352.392578" xlink:href="#DejaVuSans-74"/>
    <use x="391.601562" xlink:href="#DejaVuSans-20"/>
    <use x="423.388672" xlink:href="#DejaVuSans-42"/>
    <use x="491.992188" xlink:href="#DejaVuSans-65"/>
    <use x="553.515625" xlink:href="#DejaVuSans-6c"/>
    <use x="581.298828" xlink:href="#DejaVuSans-66"/>
    <use x="616.503906" xlink:href="#DejaVuSans-61"/>
    <use x="677.783203" xlink:href="#DejaVuSans-73"/>
    <use x="729.882812" xlink:href="#DejaVuSans-74"/>
   </g>
  </g>
 </g>
 <defs>
  <clipPath id="p60407cb169">
   <rect height="266.112" width="357.12" x="48.90125" y="41.76"/>
  </clipPath>
 </defs>
</svg>
