<?xml version="1.0" encoding="utf-8" standalone="no"?>
<!DOCTYPE svg PUBLIC "-//W3C//DTD SVG 1.1//EN"
  "http://www.w3.org/Graphics/SVG/1.1/DTD/svg11.dtd">
<!-- Created with matplotlib (http://matplotlib.org/) -->
<svg height="347.642pt" version="1.1" viewBox="0 0 428.402323 347.642" width="428.402323pt" xmlns="http://www.w3.org/2000/svg" xmlns:xlink="http://www.w3.org/1999/xlink">
 <defs>
  <style type="text/css">
*{stroke-linecap:butt;stroke-linejoin:round;}
  </style>
 </defs>
 <g id="figure_1">
  <g id="patch_1">
   <path d="M 0 347.642 
L 428.402323 347.642 
L 428.402323 0 
L 0 0 
z
" style="fill:#ffffff;"/>
  </g>
  <g id="axes_1">
   <g id="patch_2">
    <path d="M 48.90125 307.872 
L 406.02125 307.872 
L 406.02125 41.76 
L 48.90125 41.76 
z
" style="fill:#e5e5e5;"/>
   </g>
   <g id="matplotlib.axis_1">
    <g id="xtick_1">
     <g id="line2d_1">
      <path clip-path="url(#p14a49991b0)" d="M 60.97174 307.872 
L 60.97174 41.76 
" style="fill:none;stroke:#ffffff;stroke-linecap:square;stroke-width:0.8;"/>
     </g>
     <g id="line2d_2">
      <defs>
       <path d="M 0 0 
L 0 3.5 
" id="m86b852230f" style="stroke:#555555;stroke-width:0.8;"/>
      </defs>
      <g>
       <use style="fill:#555555;stroke:#555555;stroke-width:0.8;" x="60.97174" xlink:href="#m86b852230f" y="307.872"/>
      </g>
     </g>
     <g id="text_1">
      <!-- RB_lemma -->
      <defs>
       <path d="M 44.390625 34.1875 
Q 47.5625 33.109375 50.5625 29.59375 
Q 53.5625 26.078125 56.59375 19.921875 
L 66.609375 0 
L 56 0 
L 46.6875 18.703125 
Q 43.0625 26.03125 39.671875 28.421875 
Q 36.28125 30.8125 30.421875 30.8125 
L 19.671875 30.8125 
L 19.671875 0 
L 9.8125 0 
L 9.8125 72.90625 
L 32.078125 72.90625 
Q 44.578125 72.90625 50.734375 67.671875 
Q 56.890625 62.453125 56.890625 51.90625 
Q 56.890625 45.015625 53.6875 40.46875 
Q 50.484375 35.9375 44.390625 34.1875 
z
M 19.671875 64.796875 
L 19.671875 38.921875 
L 32.078125 38.921875 
Q 39.203125 38.921875 42.84375 42.21875 
Q 46.484375 45.515625 46.484375 51.90625 
Q 46.484375 58.296875 42.84375 61.546875 
Q 39.203125 64.796875 32.078125 64.796875 
z
" id="DejaVuSans-52"/>
       <path d="M 19.671875 34.8125 
L 19.671875 8.109375 
L 35.5 8.109375 
Q 43.453125 8.109375 47.28125 11.40625 
Q 51.125 14.703125 51.125 21.484375 
Q 51.125 28.328125 47.28125 31.5625 
Q 43.453125 34.8125 35.5 34.8125 
z
M 19.671875 64.796875 
L 19.671875 42.828125 
L 34.28125 42.828125 
Q 41.5 42.828125 45.03125 45.53125 
Q 48.578125 48.25 48.578125 53.8125 
Q 48.578125 59.328125 45.03125 62.0625 
Q 41.5 64.796875 34.28125 64.796875 
z
M 9.8125 72.90625 
L 35.015625 72.90625 
Q 46.296875 72.90625 52.390625 68.21875 
Q 58.5 63.53125 58.5 54.890625 
Q 58.5 48.1875 55.375 44.234375 
Q 52.25 40.28125 46.1875 39.3125 
Q 53.46875 37.75 57.5 32.78125 
Q 61.53125 27.828125 61.53125 20.40625 
Q 61.53125 10.640625 54.890625 5.3125 
Q 48.25 0 35.984375 0 
L 9.8125 0 
z
" id="DejaVuSans-42"/>
       <path d="M 50.984375 -16.609375 
L 50.984375 -23.578125 
L -0.984375 -23.578125 
L -0.984375 -16.609375 
z
" id="DejaVuSans-5f"/>
       <path d="M 9.421875 75.984375 
L 18.40625 75.984375 
L 18.40625 0 
L 9.421875 0 
z
" id="DejaVuSans-6c"/>
       <path d="M 56.203125 29.59375 
L 56.203125 25.203125 
L 14.890625 25.203125 
Q 15.484375 15.921875 20.484375 11.0625 
Q 25.484375 6.203125 34.421875 6.203125 
Q 39.59375 6.203125 44.453125 7.46875 
Q 49.3125 8.734375 54.109375 11.28125 
L 54.109375 2.78125 
Q 49.265625 0.734375 44.1875 -0.34375 
Q 39.109375 -1.421875 33.890625 -1.421875 
Q 20.796875 -1.421875 13.15625 6.1875 
Q 5.515625 13.8125 5.515625 26.8125 
Q 5.515625 40.234375 12.765625 48.109375 
Q 20.015625 56 32.328125 56 
Q 43.359375 56 49.78125 48.890625 
Q 56.203125 41.796875 56.203125 29.59375 
z
M 47.21875 32.234375 
Q 47.125 39.59375 43.09375 43.984375 
Q 39.0625 48.390625 32.421875 48.390625 
Q 24.90625 48.390625 20.390625 44.140625 
Q 15.875 39.890625 15.1875 32.171875 
z
" id="DejaVuSans-65"/>
       <path d="M 52 44.1875 
Q 55.375 50.25 60.0625 53.125 
Q 64.75 56 71.09375 56 
Q 79.640625 56 84.28125 50.015625 
Q 88.921875 44.046875 88.921875 33.015625 
L 88.921875 0 
L 79.890625 0 
L 79.890625 32.71875 
Q 79.890625 40.578125 77.09375 44.375 
Q 74.3125 48.1875 68.609375 48.1875 
Q 61.625 48.1875 57.5625 43.546875 
Q 53.515625 38.921875 53.515625 30.90625 
L 53.515625 0 
L 44.484375 0 
L 44.484375 32.71875 
Q 44.484375 40.625 41.703125 44.40625 
Q 38.921875 48.1875 33.109375 48.1875 
Q 26.21875 48.1875 22.15625 43.53125 
Q 18.109375 38.875 18.109375 30.90625 
L 18.109375 0 
L 9.078125 0 
L 9.078125 54.6875 
L 18.109375 54.6875 
L 18.109375 46.1875 
Q 21.1875 51.21875 25.484375 53.609375 
Q 29.78125 56 35.6875 56 
Q 41.65625 56 45.828125 52.96875 
Q 50 49.953125 52 44.1875 
z
" id="DejaVuSans-6d"/>
       <path d="M 34.28125 27.484375 
Q 23.390625 27.484375 19.1875 25 
Q 14.984375 22.515625 14.984375 16.5 
Q 14.984375 11.71875 18.140625 8.90625 
Q 21.296875 6.109375 26.703125 6.109375 
Q 34.1875 6.109375 38.703125 11.40625 
Q 43.21875 16.703125 43.21875 25.484375 
L 43.21875 27.484375 
z
M 52.203125 31.203125 
L 52.203125 0 
L 43.21875 0 
L 43.21875 8.296875 
Q 40.140625 3.328125 35.546875 0.953125 
Q 30.953125 -1.421875 24.3125 -1.421875 
Q 15.921875 -1.421875 10.953125 3.296875 
Q 6 8.015625 6 15.921875 
Q 6 25.140625 12.171875 29.828125 
Q 18.359375 34.515625 30.609375 34.515625 
L 43.21875 34.515625 
L 43.21875 35.40625 
Q 43.21875 41.609375 39.140625 45 
Q 35.0625 48.390625 27.6875 48.390625 
Q 23 48.390625 18.546875 47.265625 
Q 14.109375 46.140625 10.015625 43.890625 
L 10.015625 52.203125 
Q 14.9375 54.109375 19.578125 55.046875 
Q 24.21875 56 28.609375 56 
Q 40.484375 56 46.34375 49.84375 
Q 52.203125 43.703125 52.203125 31.203125 
z
" id="DejaVuSans-61"/>
      </defs>
      <g style="fill:#555555;" transform="translate(34.29674 322.470437)scale(0.1 -0.1)">
       <use xlink:href="#DejaVuSans-52"/>
       <use x="69.482422" xlink:href="#DejaVuSans-42"/>
       <use x="138.085938" xlink:href="#DejaVuSans-5f"/>
       <use x="188.085938" xlink:href="#DejaVuSans-6c"/>
       <use x="215.869141" xlink:href="#DejaVuSans-65"/>
       <use x="277.392578" xlink:href="#DejaVuSans-6d"/>
       <use x="374.804688" xlink:href="#DejaVuSans-6d"/>
       <use x="472.216797" xlink:href="#DejaVuSans-61"/>
      </g>
     </g>
    </g>
    <g id="xtick_2">
     <g id="line2d_3">
      <path clip-path="url(#p14a49991b0)" d="M 171.964747 307.872 
L 171.964747 41.76 
" style="fill:none;stroke:#ffffff;stroke-linecap:square;stroke-width:0.8;"/>
     </g>
     <g id="line2d_4">
      <g>
       <use style="fill:#555555;stroke:#555555;stroke-width:0.8;" x="171.964747" xlink:href="#m86b852230f" y="307.872"/>
      </g>
     </g>
     <g id="text_2">
      <!-- JJ_lemma -->
      <defs>
       <path d="M 9.8125 72.90625 
L 19.671875 72.90625 
L 19.671875 5.078125 
Q 19.671875 -8.109375 14.671875 -14.0625 
Q 9.671875 -20.015625 -1.421875 -20.015625 
L -5.171875 -20.015625 
L -5.171875 -11.71875 
L -2.09375 -11.71875 
Q 4.4375 -11.71875 7.125 -8.046875 
Q 9.8125 -4.390625 9.8125 5.078125 
z
" id="DejaVuSans-4a"/>
      </defs>
      <g style="fill:#555555;" transform="translate(149.244434 322.470437)scale(0.1 -0.1)">
       <use xlink:href="#DejaVuSans-4a"/>
       <use x="29.492188" xlink:href="#DejaVuSans-4a"/>
       <use x="58.984375" xlink:href="#DejaVuSans-5f"/>
       <use x="108.984375" xlink:href="#DejaVuSans-6c"/>
       <use x="136.767578" xlink:href="#DejaVuSans-65"/>
       <use x="198.291016" xlink:href="#DejaVuSans-6d"/>
       <use x="295.703125" xlink:href="#DejaVuSans-6d"/>
       <use x="393.115234" xlink:href="#DejaVuSans-61"/>
      </g>
     </g>
    </g>
    <g id="xtick_3">
     <g id="line2d_5">
      <path clip-path="url(#p14a49991b0)" d="M 282.957753 307.872 
L 282.957753 41.76 
" style="fill:none;stroke:#ffffff;stroke-linecap:square;stroke-width:0.8;"/>
     </g>
     <g id="line2d_6">
      <g>
       <use style="fill:#555555;stroke:#555555;stroke-width:0.8;" x="282.957753" xlink:href="#m86b852230f" y="307.872"/>
      </g>
     </g>
     <g id="text_3">
      <!-- VB_lemma -->
      <defs>
       <path d="M 28.609375 0 
L 0.78125 72.90625 
L 11.078125 72.90625 
L 34.1875 11.53125 
L 57.328125 72.90625 
L 67.578125 72.90625 
L 39.796875 0 
z
" id="DejaVuSans-56"/>
      </defs>
      <g style="fill:#555555;" transform="translate(256.33666 322.470437)scale(0.1 -0.1)">
       <use xlink:href="#DejaVuSans-56"/>
       <use x="68.408203" xlink:href="#DejaVuSans-42"/>
       <use x="137.011719" xlink:href="#DejaVuSans-5f"/>
       <use x="187.011719" xlink:href="#DejaVuSans-6c"/>
       <use x="214.794922" xlink:href="#DejaVuSans-65"/>
       <use x="276.318359" xlink:href="#DejaVuSans-6d"/>
       <use x="373.730469" xlink:href="#DejaVuSans-6d"/>
       <use x="471.142578" xlink:href="#DejaVuSans-61"/>
      </g>
     </g>
    </g>
    <g id="xtick_4">
     <g id="line2d_7">
      <path clip-path="url(#p14a49991b0)" d="M 393.95076 307.872 
L 393.95076 41.76 
" style="fill:none;stroke:#ffffff;stroke-linecap:square;stroke-width:0.8;"/>
     </g>
     <g id="line2d_8">
      <g>
       <use style="fill:#555555;stroke:#555555;stroke-width:0.8;" x="393.95076" xlink:href="#m86b852230f" y="307.872"/>
      </g>
     </g>
     <g id="text_4">
      <!-- NN_lemma -->
      <defs>
       <path d="M 9.8125 72.90625 
L 23.09375 72.90625 
L 55.421875 11.921875 
L 55.421875 72.90625 
L 64.984375 72.90625 
L 64.984375 0 
L 51.703125 0 
L 19.390625 60.984375 
L 19.390625 0 
L 9.8125 0 
z
" id="DejaVuSans-4e"/>
      </defs>
      <g style="fill:#555555;" transform="translate(366.699198 322.470437)scale(0.1 -0.1)">
       <use xlink:href="#DejaVuSans-4e"/>
       <use x="74.804688" xlink:href="#DejaVuSans-4e"/>
       <use x="149.609375" xlink:href="#DejaVuSans-5f"/>
       <use x="199.609375" xlink:href="#DejaVuSans-6c"/>
       <use x="227.392578" xlink:href="#DejaVuSans-65"/>
       <use x="288.916016" xlink:href="#DejaVuSans-6d"/>
       <use x="386.328125" xlink:href="#DejaVuSans-6d"/>
       <use x="483.740234" xlink:href="#DejaVuSans-61"/>
      </g>
     </g>
    </g>
    <g id="text_5">
     <!-- Grammatical Class -->
     <defs>
      <path d="M 59.515625 10.40625 
L 59.515625 29.984375 
L 43.40625 29.984375 
L 43.40625 38.09375 
L 69.28125 38.09375 
L 69.28125 6.78125 
Q 63.578125 2.734375 56.6875 0.65625 
Q 49.8125 -1.421875 42 -1.421875 
Q 24.90625 -1.421875 15.25 8.5625 
Q 5.609375 18.5625 5.609375 36.375 
Q 5.609375 54.25 15.25 64.234375 
Q 24.90625 74.21875 42 74.21875 
Q 49.125 74.21875 55.546875 72.453125 
Q 61.96875 70.703125 67.390625 67.28125 
L 67.390625 56.78125 
Q 61.921875 61.421875 55.765625 63.765625 
Q 49.609375 66.109375 42.828125 66.109375 
Q 29.4375 66.109375 22.71875 58.640625 
Q 16.015625 51.171875 16.015625 36.375 
Q 16.015625 21.625 22.71875 14.15625 
Q 29.4375 6.6875 42.828125 6.6875 
Q 48.046875 6.6875 52.140625 7.59375 
Q 56.25 8.5 59.515625 10.40625 
z
" id="DejaVuSans-47"/>
      <path d="M 41.109375 46.296875 
Q 39.59375 47.171875 37.8125 47.578125 
Q 36.03125 48 33.890625 48 
Q 26.265625 48 22.1875 43.046875 
Q 18.109375 38.09375 18.109375 28.8125 
L 18.109375 0 
L 9.078125 0 
L 9.078125 54.6875 
L 18.109375 54.6875 
L 18.109375 46.1875 
Q 20.953125 51.171875 25.484375 53.578125 
Q 30.03125 56 36.53125 56 
Q 37.453125 56 38.578125 55.875 
Q 39.703125 55.765625 41.0625 55.515625 
z
" id="DejaVuSans-72"/>
      <path d="M 18.3125 70.21875 
L 18.3125 54.6875 
L 36.8125 54.6875 
L 36.8125 47.703125 
L 18.3125 47.703125 
L 18.3125 18.015625 
Q 18.3125 11.328125 20.140625 9.421875 
Q 21.96875 7.515625 27.59375 7.515625 
L 36.8125 7.515625 
L 36.8125 0 
L 27.59375 0 
Q 17.1875 0 13.234375 3.875 
Q 9.28125 7.765625 9.28125 18.015625 
L 9.28125 47.703125 
L 2.6875 47.703125 
L 2.6875 54.6875 
L 9.28125 54.6875 
L 9.28125 70.21875 
z
" id="DejaVuSans-74"/>
      <path d="M 9.421875 54.6875 
L 18.40625 54.6875 
L 18.40625 0 
L 9.421875 0 
z
M 9.421875 75.984375 
L 18.40625 75.984375 
L 18.40625 64.59375 
L 9.421875 64.59375 
z
" id="DejaVuSans-69"/>
      <path d="M 48.78125 52.59375 
L 48.78125 44.1875 
Q 44.96875 46.296875 41.140625 47.34375 
Q 37.3125 48.390625 33.40625 48.390625 
Q 24.65625 48.390625 19.8125 42.84375 
Q 14.984375 37.3125 14.984375 27.296875 
Q 14.984375 17.28125 19.8125 11.734375 
Q 24.65625 6.203125 33.40625 6.203125 
Q 37.3125 6.203125 41.140625 7.25 
Q 44.96875 8.296875 48.78125 10.40625 
L 48.78125 2.09375 
Q 45.015625 0.34375 40.984375 -0.53125 
Q 36.96875 -1.421875 32.421875 -1.421875 
Q 20.0625 -1.421875 12.78125 6.34375 
Q 5.515625 14.109375 5.515625 27.296875 
Q 5.515625 40.671875 12.859375 48.328125 
Q 20.21875 56 33.015625 56 
Q 37.15625 56 41.109375 55.140625 
Q 45.0625 54.296875 48.78125 52.59375 
z
" id="DejaVuSans-63"/>
      <path id="DejaVuSans-20"/>
      <path d="M 64.40625 67.28125 
L 64.40625 56.890625 
Q 59.421875 61.53125 53.78125 63.8125 
Q 48.140625 66.109375 41.796875 66.109375 
Q 29.296875 66.109375 22.65625 58.46875 
Q 16.015625 50.828125 16.015625 36.375 
Q 16.015625 21.96875 22.65625 14.328125 
Q 29.296875 6.6875 41.796875 6.6875 
Q 48.140625 6.6875 53.78125 8.984375 
Q 59.421875 11.28125 64.40625 15.921875 
L 64.40625 5.609375 
Q 59.234375 2.09375 53.4375 0.328125 
Q 47.65625 -1.421875 41.21875 -1.421875 
Q 24.65625 -1.421875 15.125 8.703125 
Q 5.609375 18.84375 5.609375 36.375 
Q 5.609375 53.953125 15.125 64.078125 
Q 24.65625 74.21875 41.21875 74.21875 
Q 47.75 74.21875 53.53125 72.484375 
Q 59.328125 70.75 64.40625 67.28125 
z
" id="DejaVuSans-43"/>
      <path d="M 44.28125 53.078125 
L 44.28125 44.578125 
Q 40.484375 46.53125 36.375 47.5 
Q 32.28125 48.484375 27.875 48.484375 
Q 21.1875 48.484375 17.84375 46.4375 
Q 14.5 44.390625 14.5 40.28125 
Q 14.5 37.15625 16.890625 35.375 
Q 19.28125 33.59375 26.515625 31.984375 
L 29.59375 31.296875 
Q 39.15625 29.25 43.1875 25.515625 
Q 47.21875 21.78125 47.21875 15.09375 
Q 47.21875 7.46875 41.1875 3.015625 
Q 35.15625 -1.421875 24.609375 -1.421875 
Q 20.21875 -1.421875 15.453125 -0.5625 
Q 10.6875 0.296875 5.421875 2 
L 5.421875 11.28125 
Q 10.40625 8.6875 15.234375 7.390625 
Q 20.0625 6.109375 24.8125 6.109375 
Q 31.15625 6.109375 34.5625 8.28125 
Q 37.984375 10.453125 37.984375 14.40625 
Q 37.984375 18.0625 35.515625 20.015625 
Q 33.0625 21.96875 24.703125 23.78125 
L 21.578125 24.515625 
Q 13.234375 26.265625 9.515625 29.90625 
Q 5.8125 33.546875 5.8125 39.890625 
Q 5.8125 47.609375 11.28125 51.796875 
Q 16.75 56 26.8125 56 
Q 31.78125 56 36.171875 55.265625 
Q 40.578125 54.546875 44.28125 53.078125 
z
" id="DejaVuSans-73"/>
     </defs>
     <g style="fill:#555555;" transform="translate(170.949688 337.946375)scale(0.12 -0.12)">
      <use xlink:href="#DejaVuSans-47"/>
      <use x="77.490234" xlink:href="#DejaVuSans-72"/>
      <use x="118.603516" xlink:href="#DejaVuSans-61"/>
      <use x="179.882812" xlink:href="#DejaVuSans-6d"/>
      <use x="277.294922" xlink:href="#DejaVuSans-6d"/>
      <use x="374.707031" xlink:href="#DejaVuSans-61"/>
      <use x="435.986328" xlink:href="#DejaVuSans-74"/>
      <use x="475.195312" xlink:href="#DejaVuSans-69"/>
      <use x="502.978516" xlink:href="#DejaVuSans-63"/>
      <use x="557.958984" xlink:href="#DejaVuSans-61"/>
      <use x="619.238281" xlink:href="#DejaVuSans-6c"/>
      <use x="647.021484" xlink:href="#DejaVuSans-20"/>
      <use x="678.808594" xlink:href="#DejaVuSans-43"/>
      <use x="748.632812" xlink:href="#DejaVuSans-6c"/>
      <use x="776.416016" xlink:href="#DejaVuSans-61"/>
      <use x="837.695312" xlink:href="#DejaVuSans-73"/>
      <use x="889.794922" xlink:href="#DejaVuSans-73"/>
     </g>
    </g>
   </g>
   <g id="matplotlib.axis_2">
    <g id="ytick_1">
     <g id="line2d_9">
      <path clip-path="url(#p14a49991b0)" d="M 48.90125 307.872 
L 406.02125 307.872 
" style="fill:none;stroke:#ffffff;stroke-linecap:square;stroke-width:0.8;"/>
     </g>
     <g id="line2d_10">
      <defs>
       <path d="M 0 0 
L -3.5 0 
" id="m3db39450fa" style="stroke:#555555;stroke-width:0.8;"/>
      </defs>
      <g>
       <use style="fill:#555555;stroke:#555555;stroke-width:0.8;" x="48.90125" xlink:href="#m3db39450fa" y="307.872"/>
      </g>
     </g>
     <g id="text_6">
      <!-- 0 -->
      <defs>
       <path d="M 31.78125 66.40625 
Q 24.171875 66.40625 20.328125 58.90625 
Q 16.5 51.421875 16.5 36.375 
Q 16.5 21.390625 20.328125 13.890625 
Q 24.171875 6.390625 31.78125 6.390625 
Q 39.453125 6.390625 43.28125 13.890625 
Q 47.125 21.390625 47.125 36.375 
Q 47.125 51.421875 43.28125 58.90625 
Q 39.453125 66.40625 31.78125 66.40625 
z
M 31.78125 74.21875 
Q 44.046875 74.21875 50.515625 64.515625 
Q 56.984375 54.828125 56.984375 36.375 
Q 56.984375 17.96875 50.515625 8.265625 
Q 44.046875 -1.421875 31.78125 -1.421875 
Q 19.53125 -1.421875 13.0625 8.265625 
Q 6.59375 17.96875 6.59375 36.375 
Q 6.59375 54.828125 13.0625 64.515625 
Q 19.53125 74.21875 31.78125 74.21875 
z
" id="DejaVuSans-30"/>
      </defs>
      <g style="fill:#555555;" transform="translate(35.53875 311.671219)scale(0.1 -0.1)">
       <use xlink:href="#DejaVuSans-30"/>
      </g>
     </g>
    </g>
    <g id="ytick_2">
     <g id="line2d_11">
      <path clip-path="url(#p14a49991b0)" d="M 48.90125 275.170065 
L 406.02125 275.170065 
" style="fill:none;stroke:#ffffff;stroke-linecap:square;stroke-width:0.8;"/>
     </g>
     <g id="line2d_12">
      <g>
       <use style="fill:#555555;stroke:#555555;stroke-width:0.8;" x="48.90125" xlink:href="#m3db39450fa" y="275.170065"/>
      </g>
     </g>
     <g id="text_7">
      <!-- 20 -->
      <defs>
       <path d="M 19.1875 8.296875 
L 53.609375 8.296875 
L 53.609375 0 
L 7.328125 0 
L 7.328125 8.296875 
Q 12.9375 14.109375 22.625 23.890625 
Q 32.328125 33.6875 34.8125 36.53125 
Q 39.546875 41.84375 41.421875 45.53125 
Q 43.3125 49.21875 43.3125 52.78125 
Q 43.3125 58.59375 39.234375 62.25 
Q 35.15625 65.921875 28.609375 65.921875 
Q 23.96875 65.921875 18.8125 64.3125 
Q 13.671875 62.703125 7.8125 59.421875 
L 7.8125 69.390625 
Q 13.765625 71.78125 18.9375 73 
Q 24.125 74.21875 28.421875 74.21875 
Q 39.75 74.21875 46.484375 68.546875 
Q 53.21875 62.890625 53.21875 53.421875 
Q 53.21875 48.921875 51.53125 44.890625 
Q 49.859375 40.875 45.40625 35.40625 
Q 44.1875 33.984375 37.640625 27.21875 
Q 31.109375 20.453125 19.1875 8.296875 
z
" id="DejaVuSans-32"/>
      </defs>
      <g style="fill:#555555;" transform="translate(29.17625 278.969283)scale(0.1 -0.1)">
       <use xlink:href="#DejaVuSans-32"/>
       <use x="63.623047" xlink:href="#DejaVuSans-30"/>
      </g>
     </g>
    </g>
    <g id="ytick_3">
     <g id="line2d_13">
      <path clip-path="url(#p14a49991b0)" d="M 48.90125 242.468129 
L 406.02125 242.468129 
" style="fill:none;stroke:#ffffff;stroke-linecap:square;stroke-width:0.8;"/>
     </g>
     <g id="line2d_14">
      <g>
       <use style="fill:#555555;stroke:#555555;stroke-width:0.8;" x="48.90125" xlink:href="#m3db39450fa" y="242.468129"/>
      </g>
     </g>
     <g id="text_8">
      <!-- 40 -->
      <defs>
       <path d="M 37.796875 64.3125 
L 12.890625 25.390625 
L 37.796875 25.390625 
z
M 35.203125 72.90625 
L 47.609375 72.90625 
L 47.609375 25.390625 
L 58.015625 25.390625 
L 58.015625 17.1875 
L 47.609375 17.1875 
L 47.609375 0 
L 37.796875 0 
L 37.796875 17.1875 
L 4.890625 17.1875 
L 4.890625 26.703125 
z
" id="DejaVuSans-34"/>
      </defs>
      <g style="fill:#555555;" transform="translate(29.17625 246.267348)scale(0.1 -0.1)">
       <use xlink:href="#DejaVuSans-34"/>
       <use x="63.623047" xlink:href="#DejaVuSans-30"/>
      </g>
     </g>
    </g>
    <g id="ytick_4">
     <g id="line2d_15">
      <path clip-path="url(#p14a49991b0)" d="M 48.90125 209.766194 
L 406.02125 209.766194 
" style="fill:none;stroke:#ffffff;stroke-linecap:square;stroke-width:0.8;"/>
     </g>
     <g id="line2d_16">
      <g>
       <use style="fill:#555555;stroke:#555555;stroke-width:0.8;" x="48.90125" xlink:href="#m3db39450fa" y="209.766194"/>
      </g>
     </g>
     <g id="text_9">
      <!-- 60 -->
      <defs>
       <path d="M 33.015625 40.375 
Q 26.375 40.375 22.484375 35.828125 
Q 18.609375 31.296875 18.609375 23.390625 
Q 18.609375 15.53125 22.484375 10.953125 
Q 26.375 6.390625 33.015625 6.390625 
Q 39.65625 6.390625 43.53125 10.953125 
Q 47.40625 15.53125 47.40625 23.390625 
Q 47.40625 31.296875 43.53125 35.828125 
Q 39.65625 40.375 33.015625 40.375 
z
M 52.59375 71.296875 
L 52.59375 62.3125 
Q 48.875 64.0625 45.09375 64.984375 
Q 41.3125 65.921875 37.59375 65.921875 
Q 27.828125 65.921875 22.671875 59.328125 
Q 17.53125 52.734375 16.796875 39.40625 
Q 19.671875 43.65625 24.015625 45.921875 
Q 28.375 48.1875 33.59375 48.1875 
Q 44.578125 48.1875 50.953125 41.515625 
Q 57.328125 34.859375 57.328125 23.390625 
Q 57.328125 12.15625 50.6875 5.359375 
Q 44.046875 -1.421875 33.015625 -1.421875 
Q 20.359375 -1.421875 13.671875 8.265625 
Q 6.984375 17.96875 6.984375 36.375 
Q 6.984375 53.65625 15.1875 63.9375 
Q 23.390625 74.21875 37.203125 74.21875 
Q 40.921875 74.21875 44.703125 73.484375 
Q 48.484375 72.75 52.59375 71.296875 
z
" id="DejaVuSans-36"/>
      </defs>
      <g style="fill:#555555;" transform="translate(29.17625 213.565412)scale(0.1 -0.1)">
       <use xlink:href="#DejaVuSans-36"/>
       <use x="63.623047" xlink:href="#DejaVuSans-30"/>
      </g>
     </g>
    </g>
    <g id="ytick_5">
     <g id="line2d_17">
      <path clip-path="url(#p14a49991b0)" d="M 48.90125 177.064258 
L 406.02125 177.064258 
" style="fill:none;stroke:#ffffff;stroke-linecap:square;stroke-width:0.8;"/>
     </g>
     <g id="line2d_18">
      <g>
       <use style="fill:#555555;stroke:#555555;stroke-width:0.8;" x="48.90125" xlink:href="#m3db39450fa" y="177.064258"/>
      </g>
     </g>
     <g id="text_10">
      <!-- 80 -->
      <defs>
       <path d="M 31.78125 34.625 
Q 24.75 34.625 20.71875 30.859375 
Q 16.703125 27.09375 16.703125 20.515625 
Q 16.703125 13.921875 20.71875 10.15625 
Q 24.75 6.390625 31.78125 6.390625 
Q 38.8125 6.390625 42.859375 10.171875 
Q 46.921875 13.96875 46.921875 20.515625 
Q 46.921875 27.09375 42.890625 30.859375 
Q 38.875 34.625 31.78125 34.625 
z
M 21.921875 38.8125 
Q 15.578125 40.375 12.03125 44.71875 
Q 8.5 49.078125 8.5 55.328125 
Q 8.5 64.0625 14.71875 69.140625 
Q 20.953125 74.21875 31.78125 74.21875 
Q 42.671875 74.21875 48.875 69.140625 
Q 55.078125 64.0625 55.078125 55.328125 
Q 55.078125 49.078125 51.53125 44.71875 
Q 48 40.375 41.703125 38.8125 
Q 48.828125 37.15625 52.796875 32.3125 
Q 56.78125 27.484375 56.78125 20.515625 
Q 56.78125 9.90625 50.3125 4.234375 
Q 43.84375 -1.421875 31.78125 -1.421875 
Q 19.734375 -1.421875 13.25 4.234375 
Q 6.78125 9.90625 6.78125 20.515625 
Q 6.78125 27.484375 10.78125 32.3125 
Q 14.796875 37.15625 21.921875 38.8125 
z
M 18.3125 54.390625 
Q 18.3125 48.734375 21.84375 45.5625 
Q 25.390625 42.390625 31.78125 42.390625 
Q 38.140625 42.390625 41.71875 45.5625 
Q 45.3125 48.734375 45.3125 54.390625 
Q 45.3125 60.0625 41.71875 63.234375 
Q 38.140625 66.40625 31.78125 66.40625 
Q 25.390625 66.40625 21.84375 63.234375 
Q 18.3125 60.0625 18.3125 54.390625 
z
" id="DejaVuSans-38"/>
      </defs>
      <g style="fill:#555555;" transform="translate(29.17625 180.863477)scale(0.1 -0.1)">
       <use xlink:href="#DejaVuSans-38"/>
       <use x="63.623047" xlink:href="#DejaVuSans-30"/>
      </g>
     </g>
    </g>
    <g id="ytick_6">
     <g id="line2d_19">
      <path clip-path="url(#p14a49991b0)" d="M 48.90125 144.362323 
L 406.02125 144.362323 
" style="fill:none;stroke:#ffffff;stroke-linecap:square;stroke-width:0.8;"/>
     </g>
     <g id="line2d_20">
      <g>
       <use style="fill:#555555;stroke:#555555;stroke-width:0.8;" x="48.90125" xlink:href="#m3db39450fa" y="144.362323"/>
      </g>
     </g>
     <g id="text_11">
      <!-- 100 -->
      <defs>
       <path d="M 12.40625 8.296875 
L 28.515625 8.296875 
L 28.515625 63.921875 
L 10.984375 60.40625 
L 10.984375 69.390625 
L 28.421875 72.90625 
L 38.28125 72.90625 
L 38.28125 8.296875 
L 54.390625 8.296875 
L 54.390625 0 
L 12.40625 0 
z
" id="DejaVuSans-31"/>
      </defs>
      <g style="fill:#555555;" transform="translate(22.81375 148.161541)scale(0.1 -0.1)">
       <use xlink:href="#DejaVuSans-31"/>
       <use x="63.623047" xlink:href="#DejaVuSans-30"/>
       <use x="127.246094" xlink:href="#DejaVuSans-30"/>
      </g>
     </g>
    </g>
    <g id="ytick_7">
     <g id="line2d_21">
      <path clip-path="url(#p14a49991b0)" d="M 48.90125 111.660387 
L 406.02125 111.660387 
" style="fill:none;stroke:#ffffff;stroke-linecap:square;stroke-width:0.8;"/>
     </g>
     <g id="line2d_22">
      <g>
       <use style="fill:#555555;stroke:#555555;stroke-width:0.8;" x="48.90125" xlink:href="#m3db39450fa" y="111.660387"/>
      </g>
     </g>
     <g id="text_12">
      <!-- 120 -->
      <g style="fill:#555555;" transform="translate(22.81375 115.459606)scale(0.1 -0.1)">
       <use xlink:href="#DejaVuSans-31"/>
       <use x="63.623047" xlink:href="#DejaVuSans-32"/>
       <use x="127.246094" xlink:href="#DejaVuSans-30"/>
      </g>
     </g>
    </g>
    <g id="ytick_8">
     <g id="line2d_23">
      <path clip-path="url(#p14a49991b0)" d="M 48.90125 78.958452 
L 406.02125 78.958452 
" style="fill:none;stroke:#ffffff;stroke-linecap:square;stroke-width:0.8;"/>
     </g>
     <g id="line2d_24">
      <g>
       <use style="fill:#555555;stroke:#555555;stroke-width:0.8;" x="48.90125" xlink:href="#m3db39450fa" y="78.958452"/>
      </g>
     </g>
     <g id="text_13">
      <!-- 140 -->
      <g style="fill:#555555;" transform="translate(22.81375 82.75767)scale(0.1 -0.1)">
       <use xlink:href="#DejaVuSans-31"/>
       <use x="63.623047" xlink:href="#DejaVuSans-34"/>
       <use x="127.246094" xlink:href="#DejaVuSans-30"/>
      </g>
     </g>
    </g>
    <g id="ytick_9">
     <g id="line2d_25">
      <path clip-path="url(#p14a49991b0)" d="M 48.90125 46.256516 
L 406.02125 46.256516 
" style="fill:none;stroke:#ffffff;stroke-linecap:square;stroke-width:0.8;"/>
     </g>
     <g id="line2d_26">
      <g>
       <use style="fill:#555555;stroke:#555555;stroke-width:0.8;" x="48.90125" xlink:href="#m3db39450fa" y="46.256516"/>
      </g>
     </g>
     <g id="text_14">
      <!-- 160 -->
      <g style="fill:#555555;" transform="translate(22.81375 50.055735)scale(0.1 -0.1)">
       <use xlink:href="#DejaVuSans-31"/>
       <use x="63.623047" xlink:href="#DejaVuSans-36"/>
       <use x="127.246094" xlink:href="#DejaVuSans-30"/>
      </g>
     </g>
    </g>
    <g id="text_15">
     <!-- Words Frequency -->
     <defs>
      <path d="M 3.328125 72.90625 
L 13.28125 72.90625 
L 28.609375 11.28125 
L 43.890625 72.90625 
L 54.984375 72.90625 
L 70.3125 11.28125 
L 85.59375 72.90625 
L 95.609375 72.90625 
L 77.296875 0 
L 64.890625 0 
L 49.515625 63.28125 
L 33.984375 0 
L 21.578125 0 
z
" id="DejaVuSans-57"/>
      <path d="M 30.609375 48.390625 
Q 23.390625 48.390625 19.1875 42.75 
Q 14.984375 37.109375 14.984375 27.296875 
Q 14.984375 17.484375 19.15625 11.84375 
Q 23.34375 6.203125 30.609375 6.203125 
Q 37.796875 6.203125 41.984375 11.859375 
Q 46.1875 17.53125 46.1875 27.296875 
Q 46.1875 37.015625 41.984375 42.703125 
Q 37.796875 48.390625 30.609375 48.390625 
z
M 30.609375 56 
Q 42.328125 56 49.015625 48.375 
Q 55.71875 40.765625 55.71875 27.296875 
Q 55.71875 13.875 49.015625 6.21875 
Q 42.328125 -1.421875 30.609375 -1.421875 
Q 18.84375 -1.421875 12.171875 6.21875 
Q 5.515625 13.875 5.515625 27.296875 
Q 5.515625 40.765625 12.171875 48.375 
Q 18.84375 56 30.609375 56 
z
" id="DejaVuSans-6f"/>
      <path d="M 45.40625 46.390625 
L 45.40625 75.984375 
L 54.390625 75.984375 
L 54.390625 0 
L 45.40625 0 
L 45.40625 8.203125 
Q 42.578125 3.328125 38.25 0.953125 
Q 33.9375 -1.421875 27.875 -1.421875 
Q 17.96875 -1.421875 11.734375 6.484375 
Q 5.515625 14.40625 5.515625 27.296875 
Q 5.515625 40.1875 11.734375 48.09375 
Q 17.96875 56 27.875 56 
Q 33.9375 56 38.25 53.625 
Q 42.578125 51.265625 45.40625 46.390625 
z
M 14.796875 27.296875 
Q 14.796875 17.390625 18.875 11.75 
Q 22.953125 6.109375 30.078125 6.109375 
Q 37.203125 6.109375 41.296875 11.75 
Q 45.40625 17.390625 45.40625 27.296875 
Q 45.40625 37.203125 41.296875 42.84375 
Q 37.203125 48.484375 30.078125 48.484375 
Q 22.953125 48.484375 18.875 42.84375 
Q 14.796875 37.203125 14.796875 27.296875 
z
" id="DejaVuSans-64"/>
      <path d="M 9.8125 72.90625 
L 51.703125 72.90625 
L 51.703125 64.59375 
L 19.671875 64.59375 
L 19.671875 43.109375 
L 48.578125 43.109375 
L 48.578125 34.8125 
L 19.671875 34.8125 
L 19.671875 0 
L 9.8125 0 
z
" id="DejaVuSans-46"/>
      <path d="M 14.796875 27.296875 
Q 14.796875 17.390625 18.875 11.75 
Q 22.953125 6.109375 30.078125 6.109375 
Q 37.203125 6.109375 41.296875 11.75 
Q 45.40625 17.390625 45.40625 27.296875 
Q 45.40625 37.203125 41.296875 42.84375 
Q 37.203125 48.484375 30.078125 48.484375 
Q 22.953125 48.484375 18.875 42.84375 
Q 14.796875 37.203125 14.796875 27.296875 
z
M 45.40625 8.203125 
Q 42.578125 3.328125 38.25 0.953125 
Q 33.9375 -1.421875 27.875 -1.421875 
Q 17.96875 -1.421875 11.734375 6.484375 
Q 5.515625 14.40625 5.515625 27.296875 
Q 5.515625 40.1875 11.734375 48.09375 
Q 17.96875 56 27.875 56 
Q 33.9375 56 38.25 53.625 
Q 42.578125 51.265625 45.40625 46.390625 
L 45.40625 54.6875 
L 54.390625 54.6875 
L 54.390625 -20.796875 
L 45.40625 -20.796875 
z
" id="DejaVuSans-71"/>
      <path d="M 8.5 21.578125 
L 8.5 54.6875 
L 17.484375 54.6875 
L 17.484375 21.921875 
Q 17.484375 14.15625 20.5 10.265625 
Q 23.53125 6.390625 29.59375 6.390625 
Q 36.859375 6.390625 41.078125 11.03125 
Q 45.3125 15.671875 45.3125 23.6875 
L 45.3125 54.6875 
L 54.296875 54.6875 
L 54.296875 0 
L 45.3125 0 
L 45.3125 8.40625 
Q 42.046875 3.421875 37.71875 1 
Q 33.40625 -1.421875 27.6875 -1.421875 
Q 18.265625 -1.421875 13.375 4.4375 
Q 8.5 10.296875 8.5 21.578125 
z
M 31.109375 56 
z
" id="DejaVuSans-75"/>
      <path d="M 54.890625 33.015625 
L 54.890625 0 
L 45.90625 0 
L 45.90625 32.71875 
Q 45.90625 40.484375 42.875 44.328125 
Q 39.84375 48.1875 33.796875 48.1875 
Q 26.515625 48.1875 22.3125 43.546875 
Q 18.109375 38.921875 18.109375 30.90625 
L 18.109375 0 
L 9.078125 0 
L 9.078125 54.6875 
L 18.109375 54.6875 
L 18.109375 46.1875 
Q 21.34375 51.125 25.703125 53.5625 
Q 30.078125 56 35.796875 56 
Q 45.21875 56 50.046875 50.171875 
Q 54.890625 44.34375 54.890625 33.015625 
z
" id="DejaVuSans-6e"/>
      <path d="M 32.171875 -5.078125 
Q 28.375 -14.84375 24.75 -17.8125 
Q 21.140625 -20.796875 15.09375 -20.796875 
L 7.90625 -20.796875 
L 7.90625 -13.28125 
L 13.1875 -13.28125 
Q 16.890625 -13.28125 18.9375 -11.515625 
Q 21 -9.765625 23.484375 -3.21875 
L 25.09375 0.875 
L 2.984375 54.6875 
L 12.5 54.6875 
L 29.59375 11.921875 
L 46.6875 54.6875 
L 56.203125 54.6875 
z
" id="DejaVuSans-79"/>
     </defs>
     <g style="fill:#555555;" transform="translate(16.318125 227.279437)rotate(-90)scale(0.12 -0.12)">
      <use xlink:href="#DejaVuSans-57"/>
      <use x="98.798828" xlink:href="#DejaVuSans-6f"/>
      <use x="159.980469" xlink:href="#DejaVuSans-72"/>
      <use x="201.078125" xlink:href="#DejaVuSans-64"/>
      <use x="264.554688" xlink:href="#DejaVuSans-73"/>
      <use x="316.654297" xlink:href="#DejaVuSans-20"/>
      <use x="348.441406" xlink:href="#DejaVuSans-46"/>
      <use x="405.851562" xlink:href="#DejaVuSans-72"/>
      <use x="446.933594" xlink:href="#DejaVuSans-65"/>
      <use x="508.457031" xlink:href="#DejaVuSans-71"/>
      <use x="571.933594" xlink:href="#DejaVuSans-75"/>
      <use x="635.3125" xlink:href="#DejaVuSans-65"/>
      <use x="696.835938" xlink:href="#DejaVuSans-6e"/>
      <use x="760.214844" xlink:href="#DejaVuSans-63"/>
      <use x="815.195312" xlink:href="#DejaVuSans-79"/>
     </g>
    </g>
   </g>
   <g id="patch_3">
    <path clip-path="url(#p14a49991b0)" d="M 65.133977 307.872 
L 69.296215 307.872 
L 69.296215 229.387355 
L 65.133977 229.387355 
z
" style="fill:#e24a33;"/>
   </g>
   <g id="patch_4">
    <path clip-path="url(#p14a49991b0)" d="M 106.756355 307.872 
L 110.918593 307.872 
L 110.918593 307.872 
L 106.756355 307.872 
z
" style="fill:#e24a33;"/>
   </g>
   <g id="patch_5">
    <path clip-path="url(#p14a49991b0)" d="M 148.378733 307.872 
L 152.54097 307.872 
L 152.54097 307.872 
L 148.378733 307.872 
z
" style="fill:#e24a33;"/>
   </g>
   <g id="patch_6">
    <path clip-path="url(#p14a49991b0)" d="M 190.00111 307.872 
L 194.163348 307.872 
L 194.163348 307.872 
L 190.00111 307.872 
z
" style="fill:#e24a33;"/>
   </g>
   <g id="patch_7">
    <path clip-path="url(#p14a49991b0)" d="M 231.623488 307.872 
L 235.785726 307.872 
L 235.785726 307.872 
L 231.623488 307.872 
z
" style="fill:#e24a33;"/>
   </g>
   <g id="patch_8">
    <path clip-path="url(#p14a49991b0)" d="M 273.245865 307.872 
L 277.408103 307.872 
L 277.408103 307.872 
L 273.245865 307.872 
z
" style="fill:#e24a33;"/>
   </g>
   <g id="patch_9">
    <path clip-path="url(#p14a49991b0)" d="M 314.868243 307.872 
L 319.030481 307.872 
L 319.030481 307.872 
L 314.868243 307.872 
z
" style="fill:#e24a33;"/>
   </g>
   <g id="patch_10">
    <path clip-path="url(#p14a49991b0)" d="M 356.490621 307.872 
L 360.652858 307.872 
L 360.652858 307.872 
L 356.490621 307.872 
z
" style="fill:#e24a33;"/>
   </g>
   <g id="patch_11">
    <path clip-path="url(#p14a49991b0)" d="M 69.296215 307.872 
L 73.458453 307.872 
L 73.458453 231.022452 
L 69.296215 231.022452 
z
" style="fill:#348abd;"/>
   </g>
   <g id="patch_12">
    <path clip-path="url(#p14a49991b0)" d="M 110.918593 307.872 
L 115.08083 307.872 
L 115.08083 307.872 
L 110.918593 307.872 
z
" style="fill:#348abd;"/>
   </g>
   <g id="patch_13">
    <path clip-path="url(#p14a49991b0)" d="M 152.54097 307.872 
L 156.703208 307.872 
L 156.703208 307.872 
L 152.54097 307.872 
z
" style="fill:#348abd;"/>
   </g>
   <g id="patch_14">
    <path clip-path="url(#p14a49991b0)" d="M 194.163348 307.872 
L 198.325586 307.872 
L 198.325586 307.872 
L 194.163348 307.872 
z
" style="fill:#348abd;"/>
   </g>
   <g id="patch_15">
    <path clip-path="url(#p14a49991b0)" d="M 235.785726 307.872 
L 239.947963 307.872 
L 239.947963 307.872 
L 235.785726 307.872 
z
" style="fill:#348abd;"/>
   </g>
   <g id="patch_16">
    <path clip-path="url(#p14a49991b0)" d="M 277.408103 307.872 
L 281.570341 307.872 
L 281.570341 307.872 
L 277.408103 307.872 
z
" style="fill:#348abd;"/>
   </g>
   <g id="patch_17">
    <path clip-path="url(#p14a49991b0)" d="M 319.030481 307.872 
L 323.192719 307.872 
L 323.192719 307.872 
L 319.030481 307.872 
z
" style="fill:#348abd;"/>
   </g>
   <g id="patch_18">
    <path clip-path="url(#p14a49991b0)" d="M 360.652858 307.872 
L 364.815096 307.872 
L 364.815096 307.872 
L 360.652858 307.872 
z
" style="fill:#348abd;"/>
   </g>
   <g id="patch_19">
    <path clip-path="url(#p14a49991b0)" d="M 73.458453 307.872 
L 77.620691 307.872 
L 77.620691 307.872 
L 73.458453 307.872 
z
" style="fill:#988ed5;"/>
   </g>
   <g id="patch_20">
    <path clip-path="url(#p14a49991b0)" d="M 115.08083 307.872 
L 119.243068 307.872 
L 119.243068 307.872 
L 115.08083 307.872 
z
" style="fill:#988ed5;"/>
   </g>
   <g id="patch_21">
    <path clip-path="url(#p14a49991b0)" d="M 156.703208 307.872 
L 160.865446 307.872 
L 160.865446 240.833032 
L 156.703208 240.833032 
z
" style="fill:#988ed5;"/>
   </g>
   <g id="patch_22">
    <path clip-path="url(#p14a49991b0)" d="M 198.325586 307.872 
L 202.487823 307.872 
L 202.487823 307.872 
L 198.325586 307.872 
z
" style="fill:#988ed5;"/>
   </g>
   <g id="patch_23">
    <path clip-path="url(#p14a49991b0)" d="M 239.947963 307.872 
L 244.110201 307.872 
L 244.110201 307.872 
L 239.947963 307.872 
z
" style="fill:#988ed5;"/>
   </g>
   <g id="patch_24">
    <path clip-path="url(#p14a49991b0)" d="M 281.570341 307.872 
L 285.732579 307.872 
L 285.732579 307.872 
L 281.570341 307.872 
z
" style="fill:#988ed5;"/>
   </g>
   <g id="patch_25">
    <path clip-path="url(#p14a49991b0)" d="M 323.192719 307.872 
L 327.354956 307.872 
L 327.354956 307.872 
L 323.192719 307.872 
z
" style="fill:#988ed5;"/>
   </g>
   <g id="patch_26">
    <path clip-path="url(#p14a49991b0)" d="M 364.815096 307.872 
L 368.977334 307.872 
L 368.977334 307.872 
L 364.815096 307.872 
z
" style="fill:#988ed5;"/>
   </g>
   <g id="patch_27">
    <path clip-path="url(#p14a49991b0)" d="M 77.620691 307.872 
L 81.782928 307.872 
L 81.782928 307.872 
L 77.620691 307.872 
z
" style="fill:#777777;"/>
   </g>
   <g id="patch_28">
    <path clip-path="url(#p14a49991b0)" d="M 119.243068 307.872 
L 123.405306 307.872 
L 123.405306 307.872 
L 119.243068 307.872 
z
" style="fill:#777777;"/>
   </g>
   <g id="patch_29">
    <path clip-path="url(#p14a49991b0)" d="M 160.865446 307.872 
L 165.027684 307.872 
L 165.027684 242.468129 
L 160.865446 242.468129 
z
" style="fill:#777777;"/>
   </g>
   <g id="patch_30">
    <path clip-path="url(#p14a49991b0)" d="M 202.487823 307.872 
L 206.650061 307.872 
L 206.650061 307.872 
L 202.487823 307.872 
z
" style="fill:#777777;"/>
   </g>
   <g id="patch_31">
    <path clip-path="url(#p14a49991b0)" d="M 244.110201 307.872 
L 248.272439 307.872 
L 248.272439 307.872 
L 244.110201 307.872 
z
" style="fill:#777777;"/>
   </g>
   <g id="patch_32">
    <path clip-path="url(#p14a49991b0)" d="M 285.732579 307.872 
L 289.894816 307.872 
L 289.894816 307.872 
L 285.732579 307.872 
z
" style="fill:#777777;"/>
   </g>
   <g id="patch_33">
    <path clip-path="url(#p14a49991b0)" d="M 327.354956 307.872 
L 331.517194 307.872 
L 331.517194 307.872 
L 327.354956 307.872 
z
" style="fill:#777777;"/>
   </g>
   <g id="patch_34">
    <path clip-path="url(#p14a49991b0)" d="M 368.977334 307.872 
L 373.139572 307.872 
L 373.139572 307.872 
L 368.977334 307.872 
z
" style="fill:#777777;"/>
   </g>
   <g id="patch_35">
    <path clip-path="url(#p14a49991b0)" d="M 81.782928 307.872 
L 85.945166 307.872 
L 85.945166 307.872 
L 81.782928 307.872 
z
" style="fill:#fbc15e;"/>
   </g>
   <g id="patch_36">
    <path clip-path="url(#p14a49991b0)" d="M 123.405306 307.872 
L 127.567544 307.872 
L 127.567544 307.872 
L 123.405306 307.872 
z
" style="fill:#fbc15e;"/>
   </g>
   <g id="patch_37">
    <path clip-path="url(#p14a49991b0)" d="M 165.027684 307.872 
L 169.189921 307.872 
L 169.189921 307.872 
L 165.027684 307.872 
z
" style="fill:#fbc15e;"/>
   </g>
   <g id="patch_38">
    <path clip-path="url(#p14a49991b0)" d="M 206.650061 307.872 
L 210.812299 307.872 
L 210.812299 307.872 
L 206.650061 307.872 
z
" style="fill:#fbc15e;"/>
   </g>
   <g id="patch_39">
    <path clip-path="url(#p14a49991b0)" d="M 248.272439 307.872 
L 252.434677 307.872 
L 252.434677 307.872 
L 248.272439 307.872 
z
" style="fill:#fbc15e;"/>
   </g>
   <g id="patch_40">
    <path clip-path="url(#p14a49991b0)" d="M 289.894816 307.872 
L 294.057054 307.872 
L 294.057054 147.632516 
L 289.894816 147.632516 
z
" style="fill:#fbc15e;"/>
   </g>
   <g id="patch_41">
    <path clip-path="url(#p14a49991b0)" d="M 331.517194 307.872 
L 335.679432 307.872 
L 335.679432 307.872 
L 331.517194 307.872 
z
" style="fill:#fbc15e;"/>
   </g>
   <g id="patch_42">
    <path clip-path="url(#p14a49991b0)" d="M 373.139572 307.872 
L 377.301809 307.872 
L 377.301809 307.872 
L 373.139572 307.872 
z
" style="fill:#fbc15e;"/>
   </g>
   <g id="patch_43">
    <path clip-path="url(#p14a49991b0)" d="M 85.945166 307.872 
L 90.107404 307.872 
L 90.107404 307.872 
L 85.945166 307.872 
z
" style="fill:#8eba42;"/>
   </g>
   <g id="patch_44">
    <path clip-path="url(#p14a49991b0)" d="M 127.567544 307.872 
L 131.729781 307.872 
L 131.729781 307.872 
L 127.567544 307.872 
z
" style="fill:#8eba42;"/>
   </g>
   <g id="patch_45">
    <path clip-path="url(#p14a49991b0)" d="M 169.189921 307.872 
L 173.352159 307.872 
L 173.352159 307.872 
L 169.189921 307.872 
z
" style="fill:#8eba42;"/>
   </g>
   <g id="patch_46">
    <path clip-path="url(#p14a49991b0)" d="M 210.812299 307.872 
L 214.974537 307.872 
L 214.974537 307.872 
L 210.812299 307.872 
z
" style="fill:#8eba42;"/>
   </g>
   <g id="patch_47">
    <path clip-path="url(#p14a49991b0)" d="M 252.434677 307.872 
L 256.596914 307.872 
L 256.596914 307.872 
L 252.434677 307.872 
z
" style="fill:#8eba42;"/>
   </g>
   <g id="patch_48">
    <path clip-path="url(#p14a49991b0)" d="M 294.057054 307.872 
L 298.219292 307.872 
L 298.219292 137.821935 
L 294.057054 137.821935 
z
" style="fill:#8eba42;"/>
   </g>
   <g id="patch_49">
    <path clip-path="url(#p14a49991b0)" d="M 335.679432 307.872 
L 339.84167 307.872 
L 339.84167 307.872 
L 335.679432 307.872 
z
" style="fill:#8eba42;"/>
   </g>
   <g id="patch_50">
    <path clip-path="url(#p14a49991b0)" d="M 377.301809 307.872 
L 381.464047 307.872 
L 381.464047 307.872 
L 377.301809 307.872 
z
" style="fill:#8eba42;"/>
   </g>
   <g id="patch_51">
    <path clip-path="url(#p14a49991b0)" d="M 90.107404 307.872 
L 94.269642 307.872 
L 94.269642 307.872 
L 90.107404 307.872 
z
" style="fill:#ffb5b8;"/>
   </g>
   <g id="patch_52">
    <path clip-path="url(#p14a49991b0)" d="M 131.729781 307.872 
L 135.892019 307.872 
L 135.892019 307.872 
L 131.729781 307.872 
z
" style="fill:#ffb5b8;"/>
   </g>
   <g id="patch_53">
    <path clip-path="url(#p14a49991b0)" d="M 173.352159 307.872 
L 177.514397 307.872 
L 177.514397 307.872 
L 173.352159 307.872 
z
" style="fill:#ffb5b8;"/>
   </g>
   <g id="patch_54">
    <path clip-path="url(#p14a49991b0)" d="M 214.974537 307.872 
L 219.136774 307.872 
L 219.136774 307.872 
L 214.974537 307.872 
z
" style="fill:#ffb5b8;"/>
   </g>
   <g id="patch_55">
    <path clip-path="url(#p14a49991b0)" d="M 256.596914 307.872 
L 260.759152 307.872 
L 260.759152 307.872 
L 256.596914 307.872 
z
" style="fill:#ffb5b8;"/>
   </g>
   <g id="patch_56">
    <path clip-path="url(#p14a49991b0)" d="M 298.219292 307.872 
L 302.38153 307.872 
L 302.38153 307.872 
L 298.219292 307.872 
z
" style="fill:#ffb5b8;"/>
   </g>
   <g id="patch_57">
    <path clip-path="url(#p14a49991b0)" d="M 339.84167 307.872 
L 344.003907 307.872 
L 344.003907 307.872 
L 339.84167 307.872 
z
" style="fill:#ffb5b8;"/>
   </g>
   <g id="patch_58">
    <path clip-path="url(#p14a49991b0)" d="M 381.464047 307.872 
L 385.626285 307.872 
L 385.626285 80.593548 
L 381.464047 80.593548 
z
" style="fill:#ffb5b8;"/>
   </g>
   <g id="patch_59">
    <path clip-path="url(#p14a49991b0)" d="M 94.269642 307.872 
L 98.431879 307.872 
L 98.431879 307.872 
L 94.269642 307.872 
z
" style="fill:#e24a33;"/>
   </g>
   <g id="patch_60">
    <path clip-path="url(#p14a49991b0)" d="M 135.892019 307.872 
L 140.054257 307.872 
L 140.054257 307.872 
L 135.892019 307.872 
z
" style="fill:#e24a33;"/>
   </g>
   <g id="patch_61">
    <path clip-path="url(#p14a49991b0)" d="M 177.514397 307.872 
L 181.676635 307.872 
L 181.676635 307.872 
L 177.514397 307.872 
z
" style="fill:#e24a33;"/>
   </g>
   <g id="patch_62">
    <path clip-path="url(#p14a49991b0)" d="M 219.136774 307.872 
L 223.299012 307.872 
L 223.299012 307.872 
L 219.136774 307.872 
z
" style="fill:#e24a33;"/>
   </g>
   <g id="patch_63">
    <path clip-path="url(#p14a49991b0)" d="M 260.759152 307.872 
L 264.92139 307.872 
L 264.92139 307.872 
L 260.759152 307.872 
z
" style="fill:#e24a33;"/>
   </g>
   <g id="patch_64">
    <path clip-path="url(#p14a49991b0)" d="M 302.38153 307.872 
L 306.543767 307.872 
L 306.543767 307.872 
L 302.38153 307.872 
z
" style="fill:#e24a33;"/>
   </g>
   <g id="patch_65">
    <path clip-path="url(#p14a49991b0)" d="M 344.003907 307.872 
L 348.166145 307.872 
L 348.166145 307.872 
L 344.003907 307.872 
z
" style="fill:#e24a33;"/>
   </g>
   <g id="patch_66">
    <path clip-path="url(#p14a49991b0)" d="M 385.626285 307.872 
L 389.788523 307.872 
L 389.788523 54.432 
L 385.626285 54.432 
z
" style="fill:#e24a33;"/>
   </g>
   <g id="patch_67">
    <path d="M 48.90125 307.872 
L 48.90125 41.76 
" style="fill:none;stroke:#ffffff;stroke-linecap:square;stroke-linejoin:miter;"/>
   </g>
   <g id="patch_68">
    <path d="M 406.02125 307.872 
L 406.02125 41.76 
" style="fill:none;stroke:#ffffff;stroke-linecap:square;stroke-linejoin:miter;"/>
   </g>
   <g id="patch_69">
    <path d="M 48.90125 307.872 
L 406.02125 307.872 
" style="fill:none;stroke:#ffffff;stroke-linecap:square;stroke-linejoin:miter;"/>
   </g>
   <g id="patch_70">
    <path d="M 48.90125 41.76 
L 406.02125 41.76 
" style="fill:none;stroke:#ffffff;stroke-linecap:square;stroke-linejoin:miter;"/>
   </g>
   <g id="text_16">
    <!-- Frequency of Tokens per Grammatical Class -->
    <defs>
     <path d="M 37.109375 75.984375 
L 37.109375 68.5 
L 28.515625 68.5 
Q 23.6875 68.5 21.796875 66.546875 
Q 19.921875 64.59375 19.921875 59.515625 
L 19.921875 54.6875 
L 34.71875 54.6875 
L 34.71875 47.703125 
L 19.921875 47.703125 
L 19.921875 0 
L 10.890625 0 
L 10.890625 47.703125 
L 2.296875 47.703125 
L 2.296875 54.6875 
L 10.890625 54.6875 
L 10.890625 58.5 
Q 10.890625 67.625 15.140625 71.796875 
Q 19.390625 75.984375 28.609375 75.984375 
z
" id="DejaVuSans-66"/>
     <path d="M -0.296875 72.90625 
L 61.375 72.90625 
L 61.375 64.59375 
L 35.5 64.59375 
L 35.5 0 
L 25.59375 0 
L 25.59375 64.59375 
L -0.296875 64.59375 
z
" id="DejaVuSans-54"/>
     <path d="M 9.078125 75.984375 
L 18.109375 75.984375 
L 18.109375 31.109375 
L 44.921875 54.6875 
L 56.390625 54.6875 
L 27.390625 29.109375 
L 57.625 0 
L 45.90625 0 
L 18.109375 26.703125 
L 18.109375 0 
L 9.078125 0 
z
" id="DejaVuSans-6b"/>
     <path d="M 18.109375 8.203125 
L 18.109375 -20.796875 
L 9.078125 -20.796875 
L 9.078125 54.6875 
L 18.109375 54.6875 
L 18.109375 46.390625 
Q 20.953125 51.265625 25.265625 53.625 
Q 29.59375 56 35.59375 56 
Q 45.5625 56 51.78125 48.09375 
Q 58.015625 40.1875 58.015625 27.296875 
Q 58.015625 14.40625 51.78125 6.484375 
Q 45.5625 -1.421875 35.59375 -1.421875 
Q 29.59375 -1.421875 25.265625 0.953125 
Q 20.953125 3.328125 18.109375 8.203125 
z
M 48.6875 27.296875 
Q 48.6875 37.203125 44.609375 42.84375 
Q 40.53125 48.484375 33.40625 48.484375 
Q 26.265625 48.484375 22.1875 42.84375 
Q 18.109375 37.203125 18.109375 27.296875 
Q 18.109375 17.390625 22.1875 11.75 
Q 26.265625 6.109375 33.40625 6.109375 
Q 40.53125 6.109375 44.609375 11.75 
Q 48.6875 17.390625 48.6875 27.296875 
z
" id="DejaVuSans-70"/>
    </defs>
    <g transform="translate(68.03075 35.76)scale(0.144 -0.144)">
     <use xlink:href="#DejaVuSans-46"/>
     <use x="57.410156" xlink:href="#DejaVuSans-72"/>
     <use x="98.492188" xlink:href="#DejaVuSans-65"/>
     <use x="160.015625" xlink:href="#DejaVuSans-71"/>
     <use x="223.492188" xlink:href="#DejaVuSans-75"/>
     <use x="286.871094" xlink:href="#DejaVuSans-65"/>
     <use x="348.394531" xlink:href="#DejaVuSans-6e"/>
     <use x="411.773438" xlink:href="#DejaVuSans-63"/>
     <use x="466.753906" xlink:href="#DejaVuSans-79"/>
     <use x="525.933594" xlink:href="#DejaVuSans-20"/>
     <use x="557.720703" xlink:href="#DejaVuSans-6f"/>
     <use x="618.902344" xlink:href="#DejaVuSans-66"/>
     <use x="654.107422" xlink:href="#DejaVuSans-20"/>
     <use x="685.894531" xlink:href="#DejaVuSans-54"/>
     <use x="746.712891" xlink:href="#DejaVuSans-6f"/>
     <use x="807.894531" xlink:href="#DejaVuSans-6b"/>
     <use x="865.757812" xlink:href="#DejaVuSans-65"/>
     <use x="927.28125" xlink:href="#DejaVuSans-6e"/>
     <use x="990.660156" xlink:href="#DejaVuSans-73"/>
     <use x="1042.759766" xlink:href="#DejaVuSans-20"/>
     <use x="1074.546875" xlink:href="#DejaVuSans-70"/>
     <use x="1138.023438" xlink:href="#DejaVuSans-65"/>
     <use x="1199.546875" xlink:href="#DejaVuSans-72"/>
     <use x="1240.660156" xlink:href="#DejaVuSans-20"/>
     <use x="1272.447266" xlink:href="#DejaVuSans-47"/>
     <use x="1349.9375" xlink:href="#DejaVuSans-72"/>
     <use x="1391.050781" xlink:href="#DejaVuSans-61"/>
     <use x="1452.330078" xlink:href="#DejaVuSans-6d"/>
     <use x="1549.742188" xlink:href="#DejaVuSans-6d"/>
     <use x="1647.154297" xlink:href="#DejaVuSans-61"/>
     <use x="1708.433594" xlink:href="#DejaVuSans-74"/>
     <use x="1747.642578" xlink:href="#DejaVuSans-69"/>
     <use x="1775.425781" xlink:href="#DejaVuSans-63"/>
     <use x="1830.40625" xlink:href="#DejaVuSans-61"/>
     <use x="1891.685547" xlink:href="#DejaVuSans-6c"/>
     <use x="1919.46875" xlink:href="#DejaVuSans-20"/>
     <use x="1951.255859" xlink:href="#DejaVuSans-43"/>
     <use x="2021.080078" xlink:href="#DejaVuSans-6c"/>
     <use x="2048.863281" xlink:href="#DejaVuSans-61"/>
     <use x="2110.142578" xlink:href="#DejaVuSans-73"/>
     <use x="2162.242188" xlink:href="#DejaVuSans-73"/>
    </g>
   </g>
   <g id="legend_1">
    <g id="patch_71">
     <path d="M 55.90125 168.2975 
L 173.829375 168.2975 
Q 175.829375 168.2975 175.829375 166.2975 
L 175.829375 48.76 
Q 175.829375 46.76 173.829375 46.76 
L 55.90125 46.76 
Q 53.90125 46.76 53.90125 48.76 
L 53.90125 166.2975 
Q 53.90125 168.2975 55.90125 168.2975 
z
" style="fill:#e5e5e5;opacity:0.8;stroke:#cccccc;stroke-linejoin:miter;stroke-width:0.5;"/>
    </g>
    <g id="patch_72">
     <path d="M 57.90125 58.358437 
L 77.90125 58.358437 
L 77.90125 51.358437 
L 57.90125 51.358437 
z
" style="fill:#e24a33;"/>
    </g>
    <g id="text_17">
     <!-- Adverb -->
     <defs>
      <path d="M 34.1875 63.1875 
L 20.796875 26.90625 
L 47.609375 26.90625 
z
M 28.609375 72.90625 
L 39.796875 72.90625 
L 67.578125 0 
L 57.328125 0 
L 50.6875 18.703125 
L 17.828125 18.703125 
L 11.1875 0 
L 0.78125 0 
z
" id="DejaVuSans-41"/>
      <path d="M 2.984375 54.6875 
L 12.5 54.6875 
L 29.59375 8.796875 
L 46.6875 54.6875 
L 56.203125 54.6875 
L 35.6875 0 
L 23.484375 0 
z
" id="DejaVuSans-76"/>
      <path d="M 48.6875 27.296875 
Q 48.6875 37.203125 44.609375 42.84375 
Q 40.53125 48.484375 33.40625 48.484375 
Q 26.265625 48.484375 22.1875 42.84375 
Q 18.109375 37.203125 18.109375 27.296875 
Q 18.109375 17.390625 22.1875 11.75 
Q 26.265625 6.109375 33.40625 6.109375 
Q 40.53125 6.109375 44.609375 11.75 
Q 48.6875 17.390625 48.6875 27.296875 
z
M 18.109375 46.390625 
Q 20.953125 51.265625 25.265625 53.625 
Q 29.59375 56 35.59375 56 
Q 45.5625 56 51.78125 48.09375 
Q 58.015625 40.1875 58.015625 27.296875 
Q 58.015625 14.40625 51.78125 6.484375 
Q 45.5625 -1.421875 35.59375 -1.421875 
Q 29.59375 -1.421875 25.265625 0.953125 
Q 20.953125 3.328125 18.109375 8.203125 
L 18.109375 0 
L 9.078125 0 
L 9.078125 75.984375 
L 18.109375 75.984375 
z
" id="DejaVuSans-62"/>
     </defs>
     <g transform="translate(85.90125 58.358437)scale(0.1 -0.1)">
      <use xlink:href="#DejaVuSans-41"/>
      <use x="68.392578" xlink:href="#DejaVuSans-64"/>
      <use x="131.869141" xlink:href="#DejaVuSans-76"/>
      <use x="191.048828" xlink:href="#DejaVuSans-65"/>
      <use x="252.572266" xlink:href="#DejaVuSans-72"/>
      <use x="293.685547" xlink:href="#DejaVuSans-62"/>
     </g>
    </g>
    <g id="patch_73">
     <path d="M 57.90125 73.036562 
L 77.90125 73.036562 
L 77.90125 66.036562 
L 57.90125 66.036562 
z
" style="fill:#348abd;"/>
    </g>
    <g id="text_18">
     <!-- Adverb_lemma -->
     <g transform="translate(85.90125 73.036562)scale(0.1 -0.1)">
      <use xlink:href="#DejaVuSans-41"/>
      <use x="68.392578" xlink:href="#DejaVuSans-64"/>
      <use x="131.869141" xlink:href="#DejaVuSans-76"/>
      <use x="191.048828" xlink:href="#DejaVuSans-65"/>
      <use x="252.572266" xlink:href="#DejaVuSans-72"/>
      <use x="293.685547" xlink:href="#DejaVuSans-62"/>
      <use x="357.162109" xlink:href="#DejaVuSans-5f"/>
      <use x="407.162109" xlink:href="#DejaVuSans-6c"/>
      <use x="434.945312" xlink:href="#DejaVuSans-65"/>
      <use x="496.46875" xlink:href="#DejaVuSans-6d"/>
      <use x="593.880859" xlink:href="#DejaVuSans-6d"/>
      <use x="691.292969" xlink:href="#DejaVuSans-61"/>
     </g>
    </g>
    <g id="patch_74">
     <path d="M 57.90125 87.992812 
L 77.90125 87.992812 
L 77.90125 80.992812 
L 57.90125 80.992812 
z
" style="fill:#988ed5;"/>
    </g>
    <g id="text_19">
     <!-- Adjective -->
     <defs>
      <path d="M 9.421875 54.6875 
L 18.40625 54.6875 
L 18.40625 -0.984375 
Q 18.40625 -11.421875 14.421875 -16.109375 
Q 10.453125 -20.796875 1.609375 -20.796875 
L -1.8125 -20.796875 
L -1.8125 -13.1875 
L 0.59375 -13.1875 
Q 5.71875 -13.1875 7.5625 -10.8125 
Q 9.421875 -8.453125 9.421875 -0.984375 
z
M 9.421875 75.984375 
L 18.40625 75.984375 
L 18.40625 64.59375 
L 9.421875 64.59375 
z
" id="DejaVuSans-6a"/>
     </defs>
     <g transform="translate(85.90125 87.992812)scale(0.1 -0.1)">
      <use xlink:href="#DejaVuSans-41"/>
      <use x="68.392578" xlink:href="#DejaVuSans-64"/>
      <use x="131.869141" xlink:href="#DejaVuSans-6a"/>
      <use x="159.652344" xlink:href="#DejaVuSans-65"/>
      <use x="221.175781" xlink:href="#DejaVuSans-63"/>
      <use x="276.15625" xlink:href="#DejaVuSans-74"/>
      <use x="315.365234" xlink:href="#DejaVuSans-69"/>
      <use x="343.148438" xlink:href="#DejaVuSans-76"/>
      <use x="402.328125" xlink:href="#DejaVuSans-65"/>
     </g>
    </g>
    <g id="patch_75">
     <path d="M 57.90125 102.670937 
L 77.90125 102.670937 
L 77.90125 95.670937 
L 57.90125 95.670937 
z
" style="fill:#777777;"/>
    </g>
    <g id="text_20">
     <!-- Adjective_lemma -->
     <g transform="translate(85.90125 102.670937)scale(0.1 -0.1)">
      <use xlink:href="#DejaVuSans-41"/>
      <use x="68.392578" xlink:href="#DejaVuSans-64"/>
      <use x="131.869141" xlink:href="#DejaVuSans-6a"/>
      <use x="159.652344" xlink:href="#DejaVuSans-65"/>
      <use x="221.175781" xlink:href="#DejaVuSans-63"/>
      <use x="276.15625" xlink:href="#DejaVuSans-74"/>
      <use x="315.365234" xlink:href="#DejaVuSans-69"/>
      <use x="343.148438" xlink:href="#DejaVuSans-76"/>
      <use x="402.328125" xlink:href="#DejaVuSans-65"/>
      <use x="463.851562" xlink:href="#DejaVuSans-5f"/>
      <use x="513.851562" xlink:href="#DejaVuSans-6c"/>
      <use x="541.634766" xlink:href="#DejaVuSans-65"/>
      <use x="603.158203" xlink:href="#DejaVuSans-6d"/>
      <use x="700.570312" xlink:href="#DejaVuSans-6d"/>
      <use x="797.982422" xlink:href="#DejaVuSans-61"/>
     </g>
    </g>
    <g id="patch_76">
     <path d="M 57.90125 117.627187 
L 77.90125 117.627187 
L 77.90125 110.627187 
L 57.90125 110.627187 
z
" style="fill:#fbc15e;"/>
    </g>
    <g id="text_21">
     <!-- Verb -->
     <g transform="translate(85.90125 117.627187)scale(0.1 -0.1)">
      <use xlink:href="#DejaVuSans-56"/>
      <use x="68.298828" xlink:href="#DejaVuSans-65"/>
      <use x="129.822266" xlink:href="#DejaVuSans-72"/>
      <use x="170.935547" xlink:href="#DejaVuSans-62"/>
     </g>
    </g>
    <g id="patch_77">
     <path d="M 57.90125 132.305312 
L 77.90125 132.305312 
L 77.90125 125.305312 
L 57.90125 125.305312 
z
" style="fill:#8eba42;"/>
    </g>
    <g id="text_22">
     <!-- Verb_lemma -->
     <g transform="translate(85.90125 132.305312)scale(0.1 -0.1)">
      <use xlink:href="#DejaVuSans-56"/>
      <use x="68.298828" xlink:href="#DejaVuSans-65"/>
      <use x="129.822266" xlink:href="#DejaVuSans-72"/>
      <use x="170.935547" xlink:href="#DejaVuSans-62"/>
      <use x="234.412109" xlink:href="#DejaVuSans-5f"/>
      <use x="284.412109" xlink:href="#DejaVuSans-6c"/>
      <use x="312.195312" xlink:href="#DejaVuSans-65"/>
      <use x="373.71875" xlink:href="#DejaVuSans-6d"/>
      <use x="471.130859" xlink:href="#DejaVuSans-6d"/>
      <use x="568.542969" xlink:href="#DejaVuSans-61"/>
     </g>
    </g>
    <g id="patch_78">
     <path d="M 57.90125 147.261562 
L 77.90125 147.261562 
L 77.90125 140.261562 
L 57.90125 140.261562 
z
" style="fill:#ffb5b8;"/>
    </g>
    <g id="text_23">
     <!-- Noun -->
     <g transform="translate(85.90125 147.261562)scale(0.1 -0.1)">
      <use xlink:href="#DejaVuSans-4e"/>
      <use x="74.804688" xlink:href="#DejaVuSans-6f"/>
      <use x="135.986328" xlink:href="#DejaVuSans-75"/>
      <use x="199.365234" xlink:href="#DejaVuSans-6e"/>
     </g>
    </g>
    <g id="patch_79">
     <path d="M 57.90125 161.939687 
L 77.90125 161.939687 
L 77.90125 154.939687 
L 57.90125 154.939687 
z
" style="fill:#e24a33;"/>
    </g>
    <g id="text_24">
     <!-- Noun_lemma -->
     <g transform="translate(85.90125 161.939687)scale(0.1 -0.1)">
      <use xlink:href="#DejaVuSans-4e"/>
      <use x="74.804688" xlink:href="#DejaVuSans-6f"/>
      <use x="135.986328" xlink:href="#DejaVuSans-75"/>
      <use x="199.365234" xlink:href="#DejaVuSans-6e"/>
      <use x="262.744141" xlink:href="#DejaVuSans-5f"/>
      <use x="312.744141" xlink:href="#DejaVuSans-6c"/>
      <use x="340.527344" xlink:href="#DejaVuSans-65"/>
      <use x="402.050781" xlink:href="#DejaVuSans-6d"/>
      <use x="499.462891" xlink:href="#DejaVuSans-6d"/>
      <use x="596.875" xlink:href="#DejaVuSans-61"/>
     </g>
    </g>
   </g>
  </g>
  <g id="text_25">
   <!-- Dataset Wells -->
   <defs>
    <path d="M 19.671875 64.796875 
L 19.671875 8.109375 
L 31.59375 8.109375 
Q 46.6875 8.109375 53.6875 14.9375 
Q 60.6875 21.78125 60.6875 36.53125 
Q 60.6875 51.171875 53.6875 57.984375 
Q 46.6875 64.796875 31.59375 64.796875 
z
M 9.8125 72.90625 
L 30.078125 72.90625 
Q 51.265625 72.90625 61.171875 64.09375 
Q 71.09375 55.28125 71.09375 36.53125 
Q 71.09375 17.671875 61.125 8.828125 
Q 51.171875 0 30.078125 0 
L 9.8125 0 
z
" id="DejaVuSans-44"/>
   </defs>
   <g transform="translate(180.219688 16.318125)scale(0.12 -0.12)">
    <use xlink:href="#DejaVuSans-44"/>
    <use x="77.001953" xlink:href="#DejaVuSans-61"/>
    <use x="138.28125" xlink:href="#DejaVuSans-74"/>
    <use x="177.490234" xlink:href="#DejaVuSans-61"/>
    <use x="238.769531" xlink:href="#DejaVuSans-73"/>
    <use x="290.869141" xlink:href="#DejaVuSans-65"/>
    <use x="352.392578" xlink:href="#DejaVuSans-74"/>
    <use x="391.601562" xlink:href="#DejaVuSans-20"/>
    <use x="423.388672" xlink:href="#DejaVuSans-57"/>
    <use x="522.1875" xlink:href="#DejaVuSans-65"/>
    <use x="583.710938" xlink:href="#DejaVuSans-6c"/>
    <use x="611.494141" xlink:href="#DejaVuSans-6c"/>
    <use x="639.277344" xlink:href="#DejaVuSans-73"/>
   </g>
  </g>
 </g>
 <defs>
  <clipPath id="p14a49991b0">
   <rect height="266.112" width="357.12" x="48.90125" y="41.76"/>
  </clipPath>
 </defs>
</svg>
